<?xml version="1.0" standalone="no"?>
<!DOCTYPE svg PUBLIC "-//W3C//DTD SVG 20010904//EN"
 "http://www.w3.org/TR/2001/REC-SVG-20010904/DTD/svg10.dtd">
<svg version="1.0" xmlns="http://www.w3.org/2000/svg"
 width="1080.000000pt" height="1080.000000pt" viewBox="0 0 1080.000000 1080.000000"
 preserveAspectRatio="xMidYMid meet">
<metadata>
Created by potrace 1.14, written by Peter Selinger 2001-2017
</metadata>
<g transform="translate(0.000000,1080.000000) scale(0.100000,-0.100000)"
fill="#000000" stroke="none">
<path d="M0 5400 l0 -5400 2914 0 2914 0 6 23 c3 12 6 34 6 49 0 15 4 30 10
33 5 3 10 22 10 41 0 19 5 34 10 34 13 0 12 -23 -5 -95 -8 -33 -15 -66 -15
-72 0 -10 502 -13 2475 -13 l2475 0 0 5400 0 5400 -5400 0 -5400 0 0 -5400z
m2676 3906 c10 -8 17 -16 14 -19 -8 -8 -50 11 -50 23 0 14 13 13 36 -4z m5560
-131 c3 -14 12 -25 19 -25 10 0 12 -10 8 -34 -3 -19 -1 -36 6 -40 6 -4 11 -17
10 -29 l0 -22 -9 21 c-5 12 -13 25 -19 28 -12 8 -135 -19 -163 -34 -10 -6 -23
-10 -30 -10 -22 0 6 18 62 40 30 12 66 28 79 37 22 14 23 17 8 28 -14 10 -15
16 -4 38 15 34 25 34 33 2z m74 -200 c11 -26 50 -134 50 -140 0 -3 -4 -5 -10
-5 -5 0 -10 11 -10 24 0 13 -3 26 -7 28 -13 5 -52 131 -45 142 4 6 8 2 10 -9
2 -11 7 -29 12 -40z m70 -203 c0 -15 -2 -15 -10 -2 -13 20 -13 33 0 25 6 -3
10 -14 10 -23z m17 -54 c-3 -7 -5 -2 -5 12 0 14 2 19 5 13 2 -7 2 -19 0 -25z
m34 -82 c5 -6 9 -19 9 -30 0 -26 -13 -10 -29 36 -7 21 -9 44 -4 50 5 9 9 3 11
-17 2 -16 8 -34 13 -39z m1847 -11 c-3 -3 -9 2 -12 12 -6 14 -5 15 5 6 7 -7
10 -15 7 -18z m-8 -33 c0 -10 -17 -37 -39 -61 -33 -37 -39 -40 -43 -23 -4 12
-20 24 -44 31 l-39 11 51 -5 c54 -4 73 6 87 48 8 22 27 22 27 -1z m-1823 -44
c-3 -7 -5 -2 -5 12 0 14 2 19 5 13 2 -7 2 -19 0 -25z m528 -113 c17 -155 25
-300 18 -328 -6 -25 -9 -6 -14 83 -7 120 -18 210 -27 210 -3 0 -11 -8 -19 -17
-12 -16 -13 -15 -11 12 3 27 0 30 -30 33 -19 2 -40 1 -48 -2 -18 -7 -7 -34 17
-41 12 -4 19 -14 17 -24 -2 -10 2 -24 8 -32 6 -8 8 -38 6 -67 -4 -49 -5 -52
-16 -30 -6 13 -13 46 -14 73 -1 44 -6 54 -39 82 -21 18 -43 33 -49 33 -16 0
-22 -72 -11 -144 15 -106 15 -116 6 -122 -5 -3 -9 15 -9 40 0 25 -4 46 -8 46
-4 0 -9 15 -10 33 -1 17 -7 47 -13 65 -8 25 -8 37 0 45 14 14 14 62 1 88 -14
25 -4 24 39 -5 32 -21 43 -23 98 -17 34 4 65 9 68 13 4 3 9 26 13 50 l6 43 8
-40 c5 -22 10 -58 13 -80z m-764 -2 c41 -24 81 -73 164 -201 6 -9 18 -25 28
-36 9 -11 17 -24 17 -28 0 -5 12 -13 28 -19 30 -10 56 -57 46 -83 -5 -12 -2
-15 10 -10 13 5 15 0 11 -27 -4 -24 -3 -28 3 -15 6 13 11 16 16 8 4 -6 2 -20
-4 -31 -14 -28 -12 -39 4 -18 12 16 14 16 20 1 3 -9 4 -19 1 -24 -3 -4 2 -11
10 -14 13 -5 14 -10 5 -27 -15 -26 -18 -22 -67 71 -48 92 -64 120 -80 138 -7
7 -16 24 -19 38 -3 13 -10 24 -15 24 -5 0 -9 5 -9 11 0 6 -6 16 -12 23 -7 7
-26 31 -43 52 -47 61 -82 94 -100 94 -18 0 -64 24 -104 53 l-24 17 32 -6 c17
-4 31 -4 31 -1 0 3 -19 24 -42 47 l-43 42 45 -27 c25 -14 66 -38 91 -52z m266
57 c-1 -12 -5 -16 -10 -11 -5 5 -6 14 -3 20 11 16 15 13 13 -9z m1690 -60 c-6
-16 -15 -30 -20 -30 -5 0 -6 6 -3 13 3 6 9 20 12 30 4 9 10 17 14 17 5 0 3
-13 -3 -30z m-1670 -12 c-3 -7 -5 -2 -5 12 0 14 2 19 5 13 2 -7 2 -19 0 -25z
m20 -55 c-3 -10 -5 -4 -5 12 0 17 2 24 5 18 2 -7 2 -21 0 -30z m-857 -60 c0
-7 10 -27 22 -43 24 -33 17 -51 -12 -32 -11 6 -22 8 -25 3 -7 -12 16 -63 35
-78 12 -9 12 -14 3 -24 -10 -10 -14 -9 -19 4 -3 9 -12 17 -19 17 -7 0 -15 13
-18 30 -4 16 -15 38 -25 48 -10 10 -16 25 -14 33 11 43 14 44 28 16 28 -52 43
-12 18 48 -7 18 -6 18 9 6 9 -7 17 -20 17 -28z m880 7 c0 -11 -4 -20 -10 -20
-5 0 -10 9 -10 20 0 11 5 20 10 20 6 0 10 -9 10 -20z m31 -67 c9 -7 39 -16 68
-20 44 -5 53 -10 66 -36 8 -17 15 -37 15 -46 0 -10 -5 -7 -13 8 -14 28 -90 70
-128 71 -14 0 -48 11 -75 26 l-49 25 50 -7 c28 -3 57 -13 66 -21z m1610 -19
c-23 -26 -41 -51 -41 -55 0 -5 -5 -9 -10 -9 -10 0 5 38 19 50 4 3 12 17 18 33
8 17 20 27 34 27 18 0 16 -5 -20 -46z m-721 16 c0 -19 -11 -26 -23 -14 -8 8 3
34 14 34 5 0 9 -9 9 -20z m600 0 c0 -5 -5 -10 -11 -10 -5 0 -7 5 -4 10 3 6 8
10 11 10 2 0 4 -4 4 -10z m-2296 -66 c5 -14 4 -15 -9 -4 -17 14 -19 20 -6 20
5 0 12 -7 15 -16z m46 -39 c7 -8 9 -15 6 -15 -4 0 -14 7 -22 15 -9 8 -11 15
-6 15 5 0 15 -7 22 -15z m2188 -10 c0 -18 -6 -25 -19 -25 -11 0 -19 6 -19 14
0 8 -6 17 -12 20 -7 3 -3 3 9 1 12 -3 24 -1 28 5 10 16 13 12 13 -15z m-1211
-47 c-2 -13 -4 -5 -4 17 -1 22 1 32 4 23 2 -10 2 -28 0 -40z m-50 0 c-3 -7 -5
-2 -5 12 0 14 2 19 5 13 2 -7 2 -19 0 -25z m1356 15 c-9 -24 -63 -98 -63 -87
0 5 11 26 25 46 14 20 25 42 25 47 0 6 4 11 10 11 5 0 6 -8 3 -17z m-73 -2 c0
-12 -20 -25 -27 -18 -7 7 6 27 18 27 5 0 9 -4 9 -9z m-1260 -62 c0 -11 -4 -17
-10 -14 -5 3 -10 15 -10 26 0 11 5 17 10 14 6 -3 10 -15 10 -26z m-1096 -4
c16 -24 16 -25 -9 -23 -19 2 -25 8 -25 25 0 30 14 29 34 -2z m316 -29 c0 -4
11 -21 25 -37 13 -16 22 -36 19 -44 -7 -18 -27 -20 -22 -3 2 6 -2 19 -9 27
-49 57 -64 83 -58 99 5 15 8 14 25 -8 11 -14 20 -29 20 -34z m1286 39 c4 -8
10 -12 15 -9 14 8 10 -3 -6 -20 -14 -13 -18 -13 -45 2 l-29 17 22 12 c29 16
37 16 43 -2z m643 -119 l-20 -31 6 50 c3 28 9 61 12 75 5 21 7 19 14 -19 7
-37 5 -50 -12 -75z m-972 57 c-3 -10 -5 -2 -5 17 0 19 2 27 5 18 2 -10 2 -26
0 -35z m-157 -15 c0 -10 -4 -18 -10 -18 -5 0 -10 15 -10 33 0 24 3 28 10 17 5
-8 10 -23 10 -32z m103 -40 c3 -35 13 -88 22 -118 10 -30 19 -67 22 -82 6 -31
23 -38 23 -9 0 10 7 24 15 31 12 10 15 37 15 124 0 61 4 106 8 99 7 -11 5
-106 -5 -308 -2 -44 0 -98 4 -120 8 -33 13 -40 33 -40 l25 0 -3 -120 c-1 -66
2 -126 7 -134 14 -21 31 -4 32 32 0 18 6 62 12 98 9 49 16 65 26 61 9 -3 7 6
-8 26 -13 19 -17 33 -11 37 5 3 10 -1 10 -9 0 -18 2 -19 24 -10 20 8 21 34 2
34 -15 0 -26 21 -26 51 0 20 15 26 25 9 3 -5 15 -10 26 -10 12 0 19 -7 19 -20
0 -11 7 -20 15 -20 8 0 15 -6 15 -12 0 -7 11 -18 25 -24 27 -13 65 5 65 32 0
8 4 13 10 9 9 -5 7 -12 -21 -80 -17 -43 -19 -64 -7 -71 6 -4 14 -2 16 4 2 7
13 12 25 11 12 0 16 -3 9 -6 -12 -5 -46 -73 -39 -79 7 -8 47 10 47 20 0 7 14
25 30 41 19 19 30 39 30 57 0 32 -16 37 -25 8 -3 -11 -11 -20 -16 -20 -13 0
-12 4 18 70 24 54 43 76 43 50 0 -5 -4 -10 -10 -10 -15 0 -12 -27 4 -33 9 -4
12 -15 8 -34 -5 -28 -5 -28 34 12 21 22 37 45 36 51 -1 7 8 9 23 6 14 -2 25
-11 25 -20 0 -8 3 -12 7 -8 10 10 11 46 1 52 -15 9 -8 24 10 24 14 0 19 8 19
30 0 34 21 80 37 80 6 0 5 -5 -2 -12 -15 -15 -16 -50 -1 -65 8 -8 5 -17 -10
-32 -17 -17 -19 -26 -12 -39 7 -11 11 -12 11 -4 0 25 26 41 55 34 26 -7 26 -8
6 -26 -11 -10 -25 -15 -32 -10 -7 4 -10 3 -6 -3 4 -6 -9 -21 -28 -34 -34 -24
-43 -46 -26 -64 5 -6 12 -27 15 -47 5 -29 4 -38 -7 -38 -10 0 -17 16 -21 44
-4 24 -14 50 -21 56 -8 7 -15 19 -15 26 0 23 -10 17 -56 -33 -26 -29 -40 -51
-34 -57 10 -10 2 -65 -13 -84 -8 -10 -7 -16 2 -22 16 -10 -1 -22 -21 -15 -9 4
-13 17 -10 40 3 21 0 35 -7 35 -16 0 -91 -77 -91 -94 0 -23 18 -29 35 -12 11
11 12 16 2 19 -8 4 -7 6 3 6 17 1 52 -34 43 -43 -3 -3 -1 -12 6 -20 14 -16 51
-10 67 12 6 9 16 12 24 7 7 -4 16 -2 21 6 6 10 9 6 9 -13 0 -32 22 -37 54 -13
29 22 56 19 56 -5 0 -11 -6 -20 -14 -20 -30 0 -26 -20 3 -26 28 -6 30 -8 14
-19 -11 -8 -24 -10 -33 -5 -16 9 -70 2 -70 -9 0 -7 96 -51 111 -51 5 0 9 5 9
10 0 6 12 10 27 10 24 0 25 -2 13 -14 -23 -21 -76 -28 -90 -11 -14 17 -125 21
-135 5 -4 -6 -11 -7 -17 -4 -6 4 -4 -3 5 -16 19 -28 7 -51 -23 -43 -12 3 -22
-3 -30 -16 -10 -20 -9 -21 17 -16 15 3 52 8 82 12 48 5 54 4 48 -10 -5 -13 -1
-17 16 -18 12 0 32 -2 45 -3 27 -3 28 2 5 20 -15 11 -5 13 70 14 72 0 87 3 87
16 0 13 4 13 30 -3 25 -14 35 -15 60 -6 l30 11 -15 -28 c-8 -16 -15 -37 -15
-48 0 -23 -22 -72 -33 -72 -4 0 -3 9 3 19 5 11 10 33 10 50 l0 31 -64 0 c-35
0 -88 -5 -117 -10 -30 -6 -90 -11 -134 -12 -44 0 -86 -5 -92 -11 -16 -12 -17
-67 -2 -67 5 0 7 -5 3 -12 -6 -9 -9 -9 -12 0 -2 7 -8 9 -14 6 -5 -4 0 -16 13
-30 16 -17 28 -22 50 -17 17 3 35 0 45 -8 13 -10 17 -10 25 2 7 11 10 10 15
-8 5 -19 13 -23 45 -23 21 0 40 -4 44 -9 10 -18 -11 -20 -56 -7 -24 7 -69 16
-100 19 -52 5 -56 4 -52 -13 3 -11 15 -26 27 -33 15 -10 23 -26 24 -51 2 -20
-1 -36 -6 -36 -14 0 -32 23 -32 40 0 9 -10 25 -21 36 -12 10 -25 29 -30 42 -5
12 -13 22 -18 22 -6 0 -8 -7 -5 -15 8 -19 -6 -19 -42 0 -16 8 -37 15 -46 15
-9 0 -20 5 -23 10 -7 12 -65 10 -65 -2 0 -4 5 -8 11 -8 7 0 17 -8 24 -17 11
-14 16 -15 28 -5 9 8 18 9 21 3 3 -5 0 -11 -6 -14 -10 -3 -10 -9 1 -30 8 -14
18 -24 23 -21 4 3 8 0 8 -5 0 -6 11 -21 25 -33 27 -23 32 -44 13 -50 -9 -3 -8
-10 3 -25 10 -15 19 -19 29 -13 9 6 17 5 22 -3 6 -9 10 -8 17 2 8 12 11 9 16
-12 4 -15 11 -25 15 -22 5 3 11 1 14 -4 4 -5 2 -12 -4 -16 -9 -6 3 -42 19 -55
3 -3 24 -27 46 -55 21 -27 45 -54 52 -58 21 -13 14 -127 -8 -127 -5 0 -11 11
-15 24 -3 13 -15 26 -26 29 -11 3 -17 10 -14 16 4 6 -1 22 -11 37 -17 27 -17
27 5 15 19 -10 21 -9 15 6 -10 30 -85 123 -98 123 -7 0 -15 -7 -19 -15 -3 -8
-10 -15 -15 -15 -7 0 -7 8 0 24 9 19 7 29 -7 52 -21 32 -138 149 -178 178 -30
22 -36 52 -8 41 14 -5 15 -4 5 6 -10 10 -16 10 -24 2 -15 -15 -3 -63 16 -63 8
0 15 -8 15 -18 0 -11 9 -27 20 -37 24 -22 26 -35 5 -35 -8 0 -15 5 -15 10 0 6
-5 10 -12 10 -20 0 -78 63 -78 85 0 14 -10 24 -32 33 -40 15 -50 6 -19 -17 24
-18 22 -41 -4 -41 -19 0 -26 -27 -8 -34 12 -5 13 -9 3 -22 -10 -11 -10 -18 -2
-26 7 -7 12 -22 12 -34 0 -12 7 -27 15 -34 14 -12 45 -99 45 -127 0 -7 -4 -13
-10 -13 -5 0 -10 8 -10 18 0 22 -22 72 -32 72 -5 0 -8 12 -8 28 -1 34 -22 63
-39 53 -10 -6 -9 -10 4 -14 12 -5 13 -11 6 -25 -6 -11 -6 -24 -1 -32 12 -20
-8 -42 -31 -35 -15 5 -19 1 -19 -15 0 -16 4 -20 15 -16 26 10 32 -26 7 -42
-12 -8 -22 -22 -22 -32 0 -20 27 -77 41 -86 6 -3 7 -19 4 -35 -5 -20 -2 -34 9
-45 23 -22 20 -43 -8 -54 -23 -8 -25 -15 -31 -107 -3 -54 -7 -155 -8 -225 -2
-115 -4 -129 -24 -152 -48 -55 -108 -13 -120 84 -6 47 2 73 28 88 18 11 24 11
40 -4 10 -9 19 -26 19 -38 0 -20 0 -20 14 -1 16 24 28 153 32 323 l2 122 -42
7 -41 7 35 6 c46 7 48 28 20 172 -12 60 -19 112 -16 115 9 10 -33 35 -45 27
-8 -5 -10 1 -5 19 l6 26 -25 -23 c-14 -13 -25 -34 -25 -47 1 -39 -12 -93 -25
-109 -7 -8 -15 -37 -18 -65 -4 -27 -9 -62 -12 -77 -6 -29 3 -36 22 -17 7 7 12
3 17 -17 8 -30 -5 -44 -41 -44 -24 0 -32 -27 -13 -46 10 -10 0 -54 -21 -96 -5
-10 -9 -29 -9 -43 0 -45 -39 -20 -41 26 -2 58 14 139 27 139 8 0 14 6 14 14 0
8 3 21 6 29 3 8 -2 21 -10 30 -9 9 -16 26 -16 38 0 12 -8 28 -17 35 -16 12
-17 13 -1 14 21 0 58 60 58 94 0 33 -13 34 -28 1 -13 -27 -48 -36 -38 -9 4 11
1 14 -12 12 -9 -2 -18 -13 -20 -26 -2 -12 -8 -22 -13 -22 -5 0 -9 -9 -9 -20 0
-11 -4 -20 -10 -20 -5 0 -10 9 -10 20 0 23 -28 39 -39 22 -4 -6 -17 -13 -29
-15 -26 -4 -57 -42 -42 -52 16 -10 12 -25 -6 -18 -11 4 -13 13 -9 35 6 28 5
29 -13 19 -12 -6 -23 -15 -26 -20 -4 -5 -16 -7 -29 -3 -22 5 -22 5 -3 -17 11
-12 26 -19 33 -17 7 3 17 -4 23 -14 6 -11 17 -20 25 -20 8 0 15 -9 15 -20 0
-22 20 -26 38 -8 9 9 12 9 12 0 0 -15 -51 -125 -62 -132 -4 -3 -14 -22 -23
-43 -8 -20 -17 -37 -18 -37 -2 0 -4 18 -5 40 -1 22 3 40 8 40 13 0 50 74 50
98 0 25 -48 58 -63 43 -7 -7 -6 -15 3 -26 15 -19 5 -34 -12 -17 -13 13 -48 16
-48 4 0 -4 -9 -13 -20 -19 -17 -11 -18 -10 -13 5 3 9 12 24 20 33 16 20 8 46
-18 54 -30 10 -43 -4 -23 -26 16 -18 16 -19 -12 -19 -52 -1 -214 -107 -214
-140 0 -6 15 -24 33 -40 22 -21 40 -29 58 -27 23 3 25 1 16 -14 -11 -17 -59
-49 -74 -49 -4 0 0 5 10 11 9 5 17 16 17 24 0 12 -76 76 -89 75 -11 -1 -50
-70 -41 -70 6 0 10 -4 10 -10 0 -18 -18 -11 -25 10 -4 11 0 29 9 42 20 28 20
48 1 48 -8 0 -15 4 -15 9 0 15 -32 22 -46 10 -7 -6 -21 -9 -30 -7 -10 2 7 14
44 31 l61 28 -3 46 c-2 44 -2 45 27 40 32 -4 50 19 26 34 -20 13 -29 11 -29
-6 0 -9 -9 -15 -24 -15 -13 0 -26 -7 -30 -15 -3 -8 -10 -15 -16 -15 -16 0 -35
-22 -35 -40 0 -10 -12 -16 -34 -18 -18 -2 -43 -12 -54 -23 -11 -10 -26 -19
-31 -19 -6 0 -36 -17 -66 -39 -49 -34 -55 -42 -52 -70 1 -17 -2 -31 -8 -31 -5
0 -10 -7 -10 -16 0 -9 -6 -14 -12 -11 -7 2 -12 16 -10 30 1 14 -2 28 -7 31
-14 9 -61 -52 -61 -79 0 -13 -4 -27 -10 -30 -11 -7 -35 -58 -69 -147 -4 -13
-18 -44 -30 -71 -23 -51 -27 -77 -11 -77 5 0 -2 -12 -15 -26 -21 -23 -93 -181
-126 -279 -7 -22 -22 -55 -31 -73 -10 -18 -18 -37 -18 -42 0 -5 -13 -39 -30
-75 -16 -36 -30 -70 -30 -76 0 -14 -39 -138 -51 -161 -5 -10 -9 -26 -9 -36 0
-10 -3 -22 -7 -26 -13 -12 -42 -121 -35 -127 4 -4 16 -9 27 -11 16 -4 12 -7
-15 -15 l-35 -10 47 -21 c33 -14 46 -25 42 -35 -7 -18 26 -84 77 -156 22 -30
39 -61 39 -69 0 -10 8 -13 24 -10 22 4 23 3 15 -19 -11 -29 33 -124 114 -246
30 -45 59 -92 66 -104 6 -12 34 -30 66 -42 95 -36 146 -74 176 -132 16 -33 18
-55 13 -245 -3 -115 -7 -357 -9 -539 -2 -181 -7 -359 -10 -393 -7 -68 -29
-132 -45 -132 -6 0 -10 -7 -10 -17 0 -9 -3 -13 -6 -10 -9 8 -11 87 -3 87 13 0
0 309 -15 344 -11 27 -13 49 -6 99 8 54 6 72 -10 118 -11 30 -28 60 -37 67
-31 22 -173 -4 -203 -38 -18 -21 -86 -35 -95 -20 -3 5 -20 10 -36 10 -22 0
-32 6 -38 23 -8 20 -10 20 -16 4 -8 -18 -27 -17 -73 6 -18 8 -28 8 -43 -2 -16
-9 -28 -9 -55 -1 -19 7 -41 9 -49 6 -9 -3 -15 1 -15 9 0 17 -27 20 -32 4 -2
-6 -30 -14 -63 -18 -33 -4 -70 -13 -82 -21 -18 -11 -28 -12 -60 -1 -21 7 -43
12 -48 11 -23 -5 -35 1 -35 16 0 9 -6 14 -12 12 -17 -6 -52 -105 -98 -283 -22
-82 -50 -181 -64 -220 -13 -38 -33 -110 -45 -160 -12 -49 -26 -101 -31 -115
-4 -14 -11 -34 -15 -45 -4 -14 -8 -16 -14 -7 -4 8 1 43 11 80 11 37 24 86 28
108 5 23 18 68 30 100 26 71 43 132 58 199 33 155 107 432 118 445 15 19 64
185 64 221 0 25 -3 27 -67 35 -61 8 -69 12 -90 43 l-23 34 23 23 c20 20 39 25
117 31 l94 8 17 35 c9 19 23 64 32 100 8 36 21 88 29 117 13 46 13 53 0 58 -8
3 -20 1 -27 -5 -9 -7 -16 -6 -24 4 -6 7 -43 23 -81 35 -38 12 -74 29 -78 38
-16 28 -1 64 33 80 30 14 36 14 89 -6 31 -11 68 -21 82 -21 13 0 27 -7 30 -15
4 -8 10 -15 14 -15 11 0 68 150 76 201 4 24 16 66 26 94 10 27 21 76 25 107
l6 57 -31 -11 c-26 -10 -50 -8 -139 11 -60 12 -130 27 -156 31 -27 5 -54 13
-60 18 -7 5 -25 12 -42 16 -44 11 -102 51 -117 83 -7 15 -19 29 -26 29 -25 3
-27 5 -12 14 10 6 11 10 3 10 -7 0 -13 7 -13 17 0 15 16 15 167 9 92 -3 171
-10 177 -14 6 -5 31 -14 56 -22 25 -7 49 -17 54 -22 6 -4 16 -8 23 -8 8 0 33
-9 55 -20 23 -11 48 -20 55 -20 7 0 13 -3 13 -7 0 -5 14 -9 30 -10 31 -2 38 5
19 24 -8 8 -6 13 8 17 12 4 24 24 32 53 8 27 17 53 22 58 7 10 53 159 70 230
6 22 16 49 23 60 7 11 22 49 35 85 12 36 31 83 41 105 10 22 29 69 41 104 18
51 20 66 10 69 -7 2 -9 7 -5 11 23 16 66 94 93 170 17 46 34 88 39 95 18 24
42 104 36 120 -3 9 -2 16 4 16 10 0 32 52 32 75 0 12 -14 16 -71 18 -25 1 -36
6 -35 16 1 8 -12 19 -29 25 -90 28 -105 46 -49 57 34 6 64 -6 64 -26 0 -21 38
-38 71 -31 21 4 27 2 23 -8 -8 -20 14 -30 31 -16 8 7 29 41 46 75 34 70 33
111 -2 100 -11 -4 -19 -2 -19 5 0 6 5 8 10 5 6 -3 10 3 10 14 0 15 -7 21 -22
21 -19 0 -20 2 -8 10 13 9 11 14 -10 31 l-25 21 -25 -29 c-14 -16 -34 -33 -45
-36 -19 -7 -19 -6 1 10 26 22 59 72 51 79 -3 3 -22 1 -42 -5 -21 -5 -49 -8
-64 -5 -36 7 -94 -9 -189 -53 -116 -53 -172 -74 -172 -63 0 6 9 10 19 10 11 0
21 3 23 8 5 11 322 172 398 202 19 7 42 19 51 27 8 7 23 13 32 13 26 0 67 41
67 67 0 23 -15 32 -22 13 -2 -6 -9 -1 -16 11 -13 21 -13 21 32 15 39 -6 45 -5
40 8 -4 11 0 16 14 16 11 0 28 12 37 27 10 14 30 39 46 54 16 16 29 31 29 34
0 9 -53 -6 -80 -23 -14 -9 -38 -17 -55 -18 -45 -3 -149 -25 -160 -34 -5 -5
-27 -11 -47 -15 -21 -4 -42 -13 -49 -21 -6 -8 -22 -14 -35 -14 -12 0 -58 -13
-101 -30 -42 -16 -88 -30 -100 -30 -13 0 -23 -5 -23 -10 0 -22 -30 -21 -57 0
l-28 23 39 -7 c33 -6 38 -5 33 8 -5 13 1 16 28 16 18 0 36 4 39 9 3 4 20 11
38 15 18 3 65 16 103 27 39 12 115 35 170 51 55 17 118 38 140 49 22 10 49 21
60 25 18 7 17 8 -8 12 -16 2 -26 9 -24 15 2 7 36 14 88 17 l84 5 -27 19 c-35
23 -138 25 -171 3 -17 -11 -34 -13 -63 -8 -34 6 -40 5 -39 -9 0 -9 9 -27 18
-40 9 -14 17 -28 17 -33 0 -13 -49 27 -50 41 0 21 -42 31 -66 16 -11 -8 -23
-12 -26 -9 -2 3 -28 -6 -56 -20 -59 -29 -81 -32 -63 -11 6 7 37 21 69 30 31
10 67 22 80 27 26 10 21 29 -7 29 -22 0 -71 37 -71 53 0 8 3 7 9 -2 7 -11 39
-12 192 -3 212 12 256 19 263 38 3 8 0 14 -6 14 -13 0 -48 30 -48 41 0 4 8 10
18 12 9 3 -34 5 -97 6 -101 1 -112 -1 -101 -14 17 -21 7 -29 -43 -33 -23 -2
-82 -6 -132 -10 -88 -7 -90 -8 -87 -32 1 -13 6 -27 10 -30 17 -11 7 -45 -14
-48 -19 -3 -23 4 -30 45 l-9 48 -72 -1 c-39 -1 -90 -4 -112 -8 -31 -5 -41 -3
-41 8 0 7 -12 26 -27 41 -23 22 -34 26 -63 21 -19 -3 -39 -12 -45 -19 -5 -8
-16 -12 -23 -9 -7 2 -21 -3 -30 -11 -9 -8 -35 -18 -57 -22 l-40 -7 28 24 c34
28 29 49 -18 78 -18 11 -45 36 -59 54 -33 44 -61 53 -87 30 -10 -9 -19 -12
-19 -6 0 6 6 12 12 14 7 3 13 23 13 48 0 25 -6 45 -13 48 -6 2 -12 11 -12 20
1 15 2 15 14 0 14 -19 32 -23 39 -10 3 4 8 28 12 53 5 36 3 49 -10 62 -9 10
-21 15 -26 12 -5 -4 -9 -1 -9 4 0 6 13 11 30 11 34 0 38 10 43 100 2 41 4 34
5 -27 1 -46 5 -83 10 -84 4 0 26 -3 50 -5 31 -4 42 -1 42 8 0 16 -27 58 -48
76 -9 6 -11 12 -5 12 15 0 36 -22 63 -65 22 -36 38 -43 57 -24 8 8 13 5 18
-10 4 -13 15 -21 30 -21 12 0 26 -7 29 -16 5 -12 13 -14 34 -9 15 4 48 9 75
11 38 4 47 2 47 -11 0 -8 -9 -15 -19 -15 -11 0 -33 -11 -50 -25 -25 -22 -29
-31 -24 -60 6 -40 -1 -43 -46 -17 -31 17 -60 11 -69 -16 -4 -14 55 -45 62 -33
4 5 19 5 36 -2 27 -10 30 -16 30 -55 0 -43 1 -44 28 -37 15 5 38 9 52 11 83
10 108 38 35 40 -58 1 -69 3 -62 11 4 3 31 5 61 4 30 -1 57 3 61 9 4 7 13 7
27 -1 14 -8 58 -9 137 -5 64 4 178 10 253 14 75 4 140 10 144 14 3 4 15 3 25
-3 14 -7 19 -6 19 2 0 7 11 9 34 5 54 -10 153 41 129 65 -9 9 -6 16 9 29 21
17 21 17 -10 12 -20 -2 -32 0 -32 7 0 6 11 11 24 11 13 0 26 6 29 13 3 9 9 8
23 -4 10 -9 26 -16 34 -16 8 0 25 -3 38 -7 13 -5 22 -3 22 3 0 6 -6 11 -14 11
-8 0 -16 6 -19 14 -4 10 0 12 14 9 13 -4 19 0 19 12 0 13 -6 16 -24 11 -13 -3
-26 -1 -28 4 -3 10 -114 25 -170 23 -28 0 -37 10 -18 22 6 4 8 11 5 16 -8 11
-205 12 -205 1 0 -5 12 -14 28 -21 15 -8 35 -17 44 -22 10 -5 30 -10 45 -10
18 -1 21 -3 10 -6 -9 -2 -46 3 -80 11 -35 9 -70 16 -77 16 -23 0 1 -17 40 -29
l35 -11 -37 5 c-30 5 -39 2 -47 -14 -6 -11 -8 -27 -4 -37 4 -12 2 -15 -8 -12
-8 3 -14 18 -14 34 0 26 -3 29 -35 31 -19 1 -44 -5 -54 -12 -17 -13 -18 -18
-8 -40 7 -14 12 -28 12 -30 0 -8 -107 -3 -120 5 -8 5 -2 10 19 15 43 9 49 25
17 52 -27 23 -27 23 -4 24 13 1 39 3 58 5 19 2 53 4 75 4 28 0 36 3 25 10 -8
5 -18 6 -22 4 -4 -3 -8 -1 -8 3 0 13 -38 33 -72 38 -18 2 -65 12 -103 22 -112
29 -221 20 -314 -25 -44 -22 -94 -30 -75 -13 5 4 42 21 83 36 71 27 73 28 50
41 -22 12 -23 13 -4 14 12 0 26 5 32 11 9 9 20 9 44 0 79 -28 263 -62 297 -56
48 9 69 31 54 56 -20 32 4 30 28 -3 18 -25 28 -29 54 -26 17 3 42 2 56 -3 20
-5 15 -7 -22 -8 -27 -1 -48 -5 -48 -11 0 -6 49 -10 126 -10 122 0 152 9 81 26
-17 4 -35 9 -39 10 -5 1 -16 2 -25 3 -17 2 -17 2 -1 12 17 9 17 11 0 27 -9 10
-30 24 -47 31 l-30 14 28 9 c25 9 32 6 58 -23 16 -18 32 -29 36 -26 3 4 -2 16
-12 27 -18 20 -18 20 18 20 20 0 38 4 42 9 6 11 -71 65 -107 74 -15 4 -39 18
-55 31 -41 34 -111 68 -135 64 -13 -2 -29 -19 -42 -43 -16 -32 -21 -36 -24
-20 -3 10 1 21 7 23 22 7 -1 22 -25 16 -13 -3 -24 -4 -24 -2 0 3 18 24 39 47
32 34 40 52 46 97 10 83 20 64 24 -47 1 -35 5 -39 64 -68 66 -33 82 -37 82
-21 0 6 2 11 5 12 9 4 50 -36 50 -47 0 -6 19 -21 41 -33 38 -20 44 -21 59 -7
21 19 30 19 30 2 0 -17 34 -49 43 -41 4 4 4 18 1 31 -6 22 -4 23 22 17 38 -9
37 -9 25 -33 -13 -23 -12 -24 58 -45 70 -20 74 -20 66 5 -7 20 -6 20 24 5 54
-28 101 -16 101 26 0 17 1 17 25 2 43 -28 30 6 -26 64 -28 30 -48 56 -45 60 3
3 37 -27 74 -66 38 -40 72 -72 76 -72 4 0 18 -12 31 -27 19 -23 23 -25 22 -9
-1 10 4 21 11 23 6 3 12 0 12 -6 0 -21 52 -90 72 -97 22 -6 48 11 48 33 0 10
-6 12 -21 8 -22 -7 -59 18 -59 42 0 7 -4 21 -9 31 -17 35 -29 82 -20 82 5 0 9
-7 9 -15 0 -18 5 -19 33 -3 20 10 21 10 8 -5 -11 -14 -11 -22 3 -52 22 -45 44
-47 38 -4 -3 22 -1 30 7 25 6 -4 11 -18 11 -32 0 -29 25 -32 58 -5 23 20 21
51 -3 51 -8 0 -12 15 -11 43 1 39 -5 61 -35 119 -5 10 -9 22 -9 27 0 6 -14 40
-32 76 -22 47 -28 69 -20 77 8 8 23 -15 53 -80 28 -58 47 -88 56 -85 7 3 19
-10 29 -34 10 -21 26 -56 36 -79 20 -45 23 -74 8 -74 -5 0 -10 9 -10 20 0 11
-4 20 -10 20 -5 0 -10 11 -10 24 0 13 -7 29 -15 36 -21 17 -19 6 13 -72 26
-66 42 -85 42 -52 0 17 36 54 52 54 4 0 8 -14 8 -31 0 -26 3 -31 20 -26 19 5
20 0 20 -74 0 -71 2 -80 18 -77 11 2 18 -4 20 -19 4 -30 20 -29 28 1 7 31 -1
46 -28 46 -18 0 -20 4 -14 31 3 17 6 40 6 50 0 11 5 19 10 19 6 0 10 -16 8
-37 -2 -29 1 -38 15 -41 15 -3 17 5 17 60 0 72 -16 181 -30 206 -5 9 -14 33
-18 52 l-9 35 -8 -29 c-5 -17 -4 -47 3 -70 12 -47 5 -136 -12 -136 -7 0 -10
21 -8 61 3 53 2 61 -12 56 -12 -5 -16 0 -16 23 0 41 -39 140 -55 140 -17 0
-29 31 -15 40 7 5 8 15 1 33 -9 22 -8 27 4 27 8 0 15 6 15 14 0 22 19 30 35
16 17 -14 45 2 45 26 0 8 4 14 9 14 5 0 11 -28 14 -62z m727 53 c0 -6 -4 -13
-10 -16 -5 -3 -10 1 -10 9 0 9 5 16 10 16 6 0 10 -4 10 -9z m-331 -38 c-1 -37
-1 -37 -8 -8 -7 28 -5 45 5 45 2 0 3 -17 3 -37z m-2659 3 c0 -7 -27 -23 -60
-35 -32 -12 -62 -26 -65 -31 -4 -6 -14 -10 -23 -10 -15 0 124 89 141 90 4 0 7
-6 7 -14z m1040 -11 c0 -2 -7 -5 -15 -9 -9 -3 -15 0 -15 9 0 9 6 12 15 9 8 -4
15 -7 15 -9z m663 -33 c15 -7 27 -19 27 -25 0 -7 12 -25 26 -40 36 -39 24 -44
-14 -7 -18 16 -36 30 -42 30 -15 0 0 -29 19 -35 9 -2 28 -26 41 -52 28 -54 44
-73 59 -73 6 0 11 -4 11 -10 0 -21 -19 -8 -70 49 -29 33 -56 65 -60 71 -6 9
-10 8 -17 -5 -9 -15 -11 -12 -17 16 -3 18 -2 37 4 43 17 17 11 30 -20 51 -16
11 -30 24 -30 29 0 4 12 0 28 -10 15 -10 39 -24 55 -32z m-514 1 c0 -25 -1
-26 -9 -8 -12 27 -12 35 0 35 6 0 10 -12 9 -27z m-27 -39 c20 -8 49 -31 63
-50 15 -19 45 -47 68 -61 23 -14 49 -34 57 -43 8 -9 44 -38 79 -65 36 -27 59
-51 52 -53 -6 -2 -37 18 -68 45 -30 26 -77 62 -103 78 -87 56 -145 100 -200
154 -47 45 -50 50 -20 32 19 -11 52 -28 72 -37z m951 49 c-7 -2 -19 -2 -25 0
-7 3 -2 5 12 5 14 0 19 -2 13 -5z m304 -15 c-3 -8 -6 -5 -6 6 -1 11 2 17 5 13
3 -3 4 -12 1 -19z m-904 -105 c26 -24 35 -43 20 -43 -5 0 -24 16 -43 36 -22
22 -42 33 -53 30 -9 -2 -15 -1 -12 4 3 4 -2 13 -10 20 -8 7 -15 21 -15 32 0
21 7 16 113 -79z m1157 32 c-8 -40 -8 -40 -9 15 0 35 3 50 8 40 5 -8 5 -33 1
-55z m-331 8 c-1 -47 -1 -48 -11 -16 -6 18 -8 39 -5 47 11 29 17 17 16 -31z
m887 -3 c-29 -45 -37 -50 -29 -20 3 11 9 20 14 20 5 0 9 6 9 13 0 15 21 39 28
32 3 -3 -7 -23 -22 -45z m-3439 4 c-3 -3 -12 -4 -19 -1 -8 3 -5 6 6 6 11 1 17
-2 13 -5z m-34 -21 c-7 -2 -19 -2 -25 0 -7 3 -2 5 12 5 14 0 19 -2 13 -5z
m4319 -33 c-12 -11 -26 -20 -32 -20 -6 0 2 11 17 24 33 29 46 25 15 -4z m-428
-24 c-3 -13 -1 -27 5 -30 17 -11 13 -29 -5 -22 -10 4 -30 -4 -50 -19 -36 -28
-45 -24 -17 7 9 10 13 21 10 25 -4 3 -49 9 -99 13 l-93 7 112 1 c101 2 113 4
123 22 15 27 22 25 14 -4z m-667 -18 c-3 -7 -5 -2 -5 12 0 14 2 19 5 13 2 -7
2 -19 0 -25z m50 10 c-3 -8 -6 -5 -6 6 -1 11 2 17 5 13 3 -3 4 -12 1 -19z
m-1972 3 c3 -5 1 -12 -5 -16 -5 -3 -10 1 -10 9 0 18 6 21 15 7z m536 -31 c36
-32 33 -40 -6 -14 -20 13 -42 44 -31 44 2 0 19 -13 37 -30z m1045 -48 c-12
-11 -15 5 -8 44 l7 39 3 -39 c2 -21 1 -41 -2 -44z m126 33 l35 -7 -23 -23
c-13 -13 -24 -29 -24 -35 0 -6 -11 -27 -24 -47 l-24 -35 5 61 c4 42 2 61 -6
61 -6 0 -11 -10 -11 -23 0 -13 -7 -32 -15 -43 -8 -10 -15 -27 -15 -36 0 -10
-4 -18 -10 -18 -5 0 -10 -12 -10 -26 0 -14 -4 -22 -10 -19 -9 6 24 110 41 130
5 5 9 29 9 53 0 44 0 44 24 29 12 -9 39 -19 58 -22z m-896 -12 c-4 -4 -11 -1
-16 7 -16 25 -11 35 7 17 9 -9 13 -20 9 -24z m2098 12 c-25 -19 -38 -19 -22 0
7 8 19 14 27 15 11 0 9 -4 -5 -15z m-1953 -55 c5 0 9 -5 9 -10 0 -9 -14 -4
-49 18 -2 1 2 14 10 29 l14 27 3 -32 c2 -18 7 -32 13 -32z m-511 19 c0 -10 -4
-19 -10 -19 -5 0 -10 12 -10 26 0 14 4 23 10 19 6 -3 10 -15 10 -26z m1624
-28 c-9 -10 -26 18 -18 30 5 9 9 8 14 -7 4 -10 6 -21 4 -23z m-2554 -11 c0
-13 -11 -13 -30 0 -12 8 -11 10 8 10 12 0 22 -4 22 -10z m2530 -25 c-20 -24
-31 -18 -18 10 8 17 15 22 21 16 7 -7 6 -15 -3 -26z m424 20 c-10 -8 -23 -15
-28 -15 -6 0 -1 7 10 15 10 8 23 15 28 15 6 0 1 -7 -10 -15z m-1307 -17 c-3
-8 -6 -5 -6 6 -1 11 2 17 5 13 3 -3 4 -12 1 -19z m-1584 5 c-7 -2 -21 -2 -30
0 -10 3 -4 5 12 5 17 0 24 -2 18 -5z m44 -19 c-3 -3 -12 -4 -19 -1 -8 3 -5 6
6 6 11 1 17 -2 13 -5z m2176 -14 c-3 -11 -8 -20 -12 -20 -4 0 -14 9 -24 20
-16 19 -16 20 12 20 24 0 28 -3 24 -20z m934 14 c-3 -3 -12 -4 -19 -1 -8 3 -5
6 6 6 11 1 17 -2 13 -5z m-2142 -44 c0 -45 -15 -48 -30 -6 -7 21 -6 29 5 36
24 15 26 12 25 -30z m-2213 0 c7 -11 22 -20 32 -20 22 0 86 -57 86 -77 0 -16
37 -36 55 -29 7 2 15 15 17 28 2 13 7 -11 11 -52 6 -54 4 -96 -8 -150 -8 -41
-22 -113 -31 -160 -16 -89 -41 -128 -92 -144 -20 -7 -21 -9 -7 -30 9 -14 34
-27 65 -35 33 -8 58 -23 75 -43 14 -16 29 -27 34 -24 5 3 19 -2 32 -12 13 -10
37 -24 53 -31 47 -20 89 -57 236 -203 75 -76 142 -138 148 -138 7 0 18 11 24
25 8 18 14 22 19 13 6 -9 13 -9 34 0 35 16 51 16 36 -1 -15 -19 -4 -27 41 -27
21 0 38 -4 38 -10 0 -5 8 -10 17 -10 31 0 123 24 123 32 0 13 36 9 66 -8 l29
-16 -49 6 c-39 5 -47 3 -43 -8 6 -15 -19 -24 -93 -32 -25 -3 -55 -11 -67 -19
-12 -8 -29 -15 -36 -15 -8 0 -20 -7 -27 -15 -11 -13 -6 -22 30 -58 42 -42 79
-107 80 -139 0 -12 8 -18 23 -18 l22 -1 -23 -19 c-13 -10 -30 -40 -39 -65 -8
-26 -31 -63 -51 -82 l-36 -36 -13 47 c-8 25 -18 46 -24 46 -7 0 -9 11 -7 25 3
14 1 25 -3 25 -5 0 -9 9 -9 19 0 11 -4 23 -10 26 -5 3 -10 1 -10 -6 0 -22 -13
-1 -14 23 -1 16 -7 22 -19 20 -9 -2 -20 5 -24 15 -4 10 -15 25 -25 33 -10 8
-24 33 -32 55 l-13 40 -64 -3 c-76 -3 -117 -18 -142 -49 -10 -13 -27 -23 -38
-23 -23 0 -86 -38 -154 -94 -53 -43 -58 -47 -170 -108 -38 -22 -82 -50 -96
-64 -14 -13 -29 -21 -33 -17 -4 4 -10 3 -14 -3 -9 -15 -87 -54 -107 -54 -9 0
-14 -4 -11 -9 8 -12 -18 -21 -64 -21 -33 0 -138 46 -127 56 2 2 26 -3 53 -11
27 -8 60 -15 74 -15 32 0 160 63 205 100 12 10 10 15 -14 36 -16 13 -36 24
-45 24 -9 0 -27 7 -40 16 -14 9 -27 11 -30 5 -3 -5 -15 -7 -26 -4 -11 3 -31
-2 -45 -11 -33 -22 -37 -20 -33 12 2 21 8 27 28 28 14 1 29 2 34 3 10 1 -24
34 -61 58 -13 8 -20 20 -16 26 4 7 0 8 -11 4 -14 -6 -17 -3 -12 9 4 11 1 14
-13 9 -11 -3 -34 3 -55 16 -36 21 -50 44 -20 32 26 -10 3 25 -51 76 -35 34
-44 49 -39 65 4 12 7 22 8 23 1 1 19 0 39 -4 27 -4 37 -11 37 -24 0 -10 -4
-21 -10 -24 -5 -3 -10 -15 -10 -27 0 -15 3 -18 13 -10 14 12 69 4 61 -9 -3 -5
-17 -9 -32 -9 -25 0 -25 -1 -6 -15 10 -8 36 -18 57 -21 26 -5 37 -12 37 -24 0
-33 126 -140 148 -126 4 2 26 7 47 10 22 3 51 8 64 12 17 5 22 4 17 -4 -4 -7
-14 -12 -22 -12 -30 0 -74 -34 -73 -55 0 -5 3 -4 6 3 2 6 9 12 15 12 12 0 38
-26 38 -38 0 -5 8 -16 19 -26 17 -15 22 -14 87 24 37 22 73 41 78 43 5 2 -3
20 -20 40 -29 37 -60 47 -81 26 -6 -6 -17 -9 -25 -6 -7 3 11 15 40 27 28 13
52 27 52 32 0 5 10 8 23 7 12 -2 39 3 59 10 31 10 37 17 40 44 3 36 23 39 23
4 0 -16 5 -21 20 -19 11 2 24 8 29 13 6 5 16 9 24 9 7 0 20 7 28 15 9 8 30 15
48 15 40 0 59 20 59 61 0 19 3 25 9 17 4 -7 8 -21 8 -31 0 -10 7 -20 15 -23
17 -7 137 56 143 75 3 8 0 11 -6 7 -16 -9 -44 5 -38 20 3 9 0 11 -11 7 -13 -5
-15 -2 -9 12 4 13 -2 27 -21 47 -28 29 -59 38 -50 14 4 -10 0 -12 -14 -9 -16
5 -19 0 -19 -28 l0 -33 -19 36 c-24 47 -100 139 -111 133 -11 -7 -60 -150 -60
-178 0 -14 -6 -40 -14 -58 -13 -31 -14 -32 -18 -9 -3 22 -7 24 -59 21 -51 -2
-56 0 -67 24 -17 36 -15 72 4 105 15 24 21 27 46 19 16 -4 37 -18 47 -30 33
-41 58 -9 76 94 6 37 7 38 38 32 18 -4 49 -16 69 -28 21 -11 41 -17 45 -14 9
10 -34 54 -81 84 -32 21 -43 23 -62 14 -20 -9 -25 -7 -34 10 -6 11 -15 17 -21
14 -5 -4 -12 1 -15 9 -3 9 -14 16 -25 16 -32 0 -64 94 -38 111 12 7 12 9 0 9
-8 0 -22 7 -32 16 -10 9 -37 20 -61 25 -24 6 -68 27 -98 48 -77 53 -99 59
-233 67 -88 5 -116 9 -107 18 7 7 49 11 108 11 80 -1 111 -6 180 -30 45 -15
85 -26 88 -22 13 13 -54 67 -83 67 -33 0 -186 53 -190 66 -1 5 24 24 56 41 59
33 59 33 70 94 12 68 33 109 62 116 21 6 25 17 34 100 9 85 49 128 77 83z
m1358 -10 c0 -5 -4 -10 -10 -10 -5 0 -10 5 -10 10 0 6 5 10 10 10 6 0 10 -4
10 -10z m690 -5 c0 -8 -4 -15 -10 -15 -5 0 -10 7 -10 15 0 8 5 15 10 15 6 0
10 -7 10 -15z m978 -13 c2 -12 -1 -22 -7 -22 -6 0 -11 4 -11 9 0 5 -3 17 -7
27 -4 12 -2 15 8 12 8 -2 15 -14 17 -26z m422 -102 c0 -5 -5 -10 -11 -10 -5 0
-7 5 -4 10 3 6 8 10 11 10 2 0 4 -4 4 -10z m175 -118 c-31 -26 -40 -24 -30 8
5 15 12 19 26 15 15 -5 19 -1 20 22 2 27 2 27 6 3 4 -18 -2 -31 -22 -48z
m-2355 18 c0 -5 -2 -10 -4 -10 -3 0 -8 5 -11 10 -3 6 -1 10 4 10 6 0 11 -4 11
-10z m-662 -39 c2 -13 -2 -35 -8 -51 -11 -26 -15 -28 -63 -25 -66 3 -117 15
-117 27 0 26 23 48 50 48 16 0 32 5 36 11 3 6 17 9 30 6 12 -2 29 0 36 4 19
13 33 5 36 -20z m405 12 c-7 -2 -21 -2 -30 0 -10 3 -4 5 12 5 17 0 24 -2 18
-5z m2473 -70 c-7 -7 -26 7 -26 19 0 6 6 6 15 -2 9 -7 13 -15 11 -17z m-1589
11 c-3 -3 -12 -4 -19 -1 -8 3 -5 6 6 6 11 1 17 -2 13 -5z m-282 -13 c3 -5 1
-12 -5 -16 -5 -3 -10 1 -10 9 0 18 6 21 15 7z m330 -11 c3 -5 0 -10 -8 -10
-20 0 -28 -25 -14 -40 10 -10 5 -11 -23 -5 -19 4 -66 10 -105 14 l-70 6 50 9
c28 4 66 8 85 9 19 0 41 6 48 14 16 16 29 17 37 3z m2103 -46 c-2 -8 -6 -15
-10 -15 -5 1 -18 1 -30 1 -23 0 -23 1 2 14 34 19 42 19 38 0z m-2415 -11 c-13
-2 -33 -2 -45 0 -13 2 -3 4 22 4 25 0 35 -2 23 -4z m1990 0 c-7 -2 -21 -2 -30
0 -10 3 -4 5 12 5 17 0 24 -2 18 -5z m127 -32 c0 -15 -9 -20 -40 -23 -22 -2
-40 0 -40 4 0 5 7 8 16 8 8 0 22 7 30 15 21 20 34 19 34 -4z m-2588 -2 c10 -5
18 -16 18 -24 0 -17 -4 -18 -28 -6 -9 5 -32 15 -51 23 l-33 14 38 1 c21 1 47
-3 56 -8z m688 -20 c0 -18 -18 -9 -23 12 -4 16 -3 18 9 8 8 -6 14 -15 14 -20z
m-580 1 c22 -6 23 -8 7 -15 -21 -9 -67 2 -67 15 0 11 24 11 60 0z m50 -10 c0
-5 -5 -10 -11 -10 -5 0 -7 5 -4 10 3 6 8 10 11 10 2 0 4 -4 4 -10z m128 -17
c-15 -2 -42 -2 -60 0 -18 2 -6 4 27 4 33 0 48 -2 33 -4z m2342 -3 c0 -5 -2
-10 -4 -10 -3 0 -8 5 -11 10 -3 6 -1 10 4 10 6 0 11 -4 11 -10z m-3466 -55
c-4 -8 -8 -15 -10 -15 -2 0 -4 7 -4 15 0 8 4 15 10 15 5 0 7 -7 4 -15z m-441
-85 c30 -11 62 -29 71 -39 16 -17 16 -19 -4 -24 -34 -9 -22 -27 18 -28 38 -1
36 -3 -9 -13 -19 -4 -33 -19 -48 -51 -12 -25 -23 -45 -26 -45 -11 0 -4 40 10
54 17 17 20 36 4 36 -20 0 -49 -21 -49 -35 0 -9 -10 -15 -26 -15 -23 0 -25 3
-21 34 5 37 -7 56 -35 56 -10 0 -18 5 -18 10 0 15 66 12 107 -5 41 -17 65 -7
44 19 -21 25 -82 40 -163 40 -78 0 -106 11 -45 19 81 10 139 6 190 -13z m1872
-10 c4 -6 -8 -10 -30 -10 -22 0 -34 4 -30 10 3 6 17 10 30 10 13 0 27 -4 30
-10z m-2156 -32 c-24 -18 -47 -37 -51 -42 -4 -6 -10 -7 -14 -3 -6 6 5 17 65
64 9 7 23 13 30 13 8 0 -5 -14 -30 -32z m1350 -35 c0 -25 -1 -25 -8 -8 -5 11
-7 23 -4 28 8 14 13 7 12 -20z m2491 7 c0 -5 -2 -10 -4 -10 -3 0 -8 5 -11 10
-3 6 -1 10 4 10 6 0 11 -4 11 -10z m-2813 -47 c-3 -10 -5 -2 -5 17 0 19 2 27
5 18 2 -10 2 -26 0 -35z m159 32 c-11 -8 -23 -15 -28 -15 -4 0 -8 -7 -8 -15 0
-16 -25 -21 -34 -6 -4 5 11 18 31 29 46 23 65 27 39 7z m-1151 -82 c27 -28 55
-91 55 -125 0 -10 7 -18 15 -18 13 0 13 -4 3 -22 -7 -13 -16 -25 -20 -28 -4
-3 -11 -17 -17 -32 -8 -22 -7 -26 3 -22 20 8 25 -7 14 -36 -6 -15 -12 -20 -15
-12 -4 10 -8 10 -19 2 -10 -9 -14 -7 -19 12 -4 14 -5 38 -3 54 3 25 0 29 -19
27 -13 -2 -23 -2 -23 0 0 1 -9 27 -20 57 -19 53 -27 150 -13 163 15 15 53 5
78 -20z m-180 -39 c-8 -16 -15 -23 -15 -16 0 17 20 55 26 49 2 -2 -2 -17 -11
-33z m4172 30 c-3 -3 -12 -4 -19 -1 -8 3 -5 6 6 6 11 1 17 -2 13 -5z m-2827
-14 c0 -5 -7 -10 -15 -10 -8 0 -15 5 -15 10 0 6 7 10 15 10 8 0 15 -4 15 -10z
m-910 -70 c0 -20 -5 -30 -15 -30 -18 0 -19 14 -5 41 15 27 20 24 20 -11z m154
15 c3 -8 1 -15 -4 -15 -6 0 -10 7 -10 15 0 8 2 15 4 15 2 0 6 -7 10 -15z
m1254 -6 c-2 -6 -22 -18 -43 -25 -110 -40 -127 -45 -138 -40 -7 2 -2 5 11 5
12 1 22 5 22 9 0 5 18 14 39 21 22 6 52 18 68 26 34 18 46 19 41 4z m112 -39
c-12 -22 -18 -24 -39 -11 -19 12 -4 31 25 31 22 0 23 -3 14 -20z m-1349 -6
c23 -4 44 -14 49 -25 6 -10 20 -19 32 -21 13 -2 22 -7 21 -13 -4 -15 -51 -28
-71 -19 -30 14 -82 12 -82 -2 0 -9 11 -14 30 -14 29 0 40 -13 21 -24 -14 -9
-125 14 -142 30 -8 8 -28 14 -42 14 -22 0 -27 5 -27 24 0 30 23 49 50 42 11
-3 29 -9 40 -12 14 -4 20 -1 20 10 0 15 26 26 48 20 8 -2 32 -7 53 -10z m3309
-5 c7 -11 8 -24 4 -27 -4 -4 -9 -1 -11 6 -3 6 -13 12 -23 12 -20 0 -33 13 -23
24 13 13 43 5 53 -15z m-3970 -21 c0 -7 4 -19 9 -27 8 -12 12 -13 25 -1 19 15
31 7 22 -15 -4 -10 -15 -15 -33 -13 -20 2 -30 -3 -38 -20 -21 -40 -25 -37 -21
14 2 27 4 55 5 62 1 6 8 12 16 12 8 0 15 -6 15 -12z m2270 0 c0 -7 -4 -19 -9
-26 -7 -11 -10 -10 -15 3 -3 9 -4 21 0 26 8 13 24 11 24 -3z m1817 6 c-3 -3
-12 -4 -19 -1 -8 3 -5 6 6 6 11 1 17 -2 13 -5z m-2397 -19 c-7 -8 -22 -15 -34
-14 -18 0 -16 3 9 14 39 18 40 18 25 0z m526 3 c7 -10 -36 -49 -60 -55 -6 -1
-22 -5 -36 -8 l-25 -7 24 21 c13 12 29 21 37 21 7 0 18 9 24 20 12 22 25 26
36 8z m1821 -28 c9 -16 21 -30 25 -30 4 0 8 -4 8 -10 0 -5 -9 -10 -20 -10 -11
0 -20 6 -20 14 0 7 -7 19 -15 26 -17 14 -20 40 -6 40 6 0 18 -13 28 -30z
m-2441 -18 c-3 -5 -24 -17 -48 -26 -24 -10 -51 -22 -60 -27 -26 -14 -46 -10
-23 4 23 14 116 55 128 56 5 1 6 -3 3 -7z m467 -19 c-18 -2 -33 -8 -33 -14 0
-5 -10 -9 -22 -9 -22 1 -23 1 -4 15 11 8 36 14 55 13 l36 -1 -32 -4z m-736
-35 c-3 -8 -6 -5 -6 6 -1 11 2 17 5 13 3 -3 4 -12 1 -19z m2916 15 c-7 -2 -19
-2 -25 0 -7 3 -2 5 12 5 14 0 19 -2 13 -5z m-3670 -28 c-3 -9 -8 -14 -10 -11
-3 3 -2 9 2 15 9 16 15 13 8 -4z m-585 -26 c13 -16 20 -29 15 -29 -17 0 -53
31 -53 46 0 21 12 16 38 -17z m1639 15 c-3 -3 -12 -4 -19 -1 -8 3 -5 6 6 6 11
1 17 -2 13 -5z m1818 -3 c3 -5 1 -12 -5 -16 -5 -3 -10 1 -10 9 0 18 6 21 15 7z
m-2975 -21 c0 -11 -7 -20 -15 -20 -27 0 -18 30 13 39 1 1 2 -8 2 -19z m160 13
c0 -5 -5 -15 -10 -23 -8 -12 -10 -11 -10 8 0 12 5 22 10 22 6 0 10 -3 10 -7z
m-77 -28 c-1 -5 -15 -12 -30 -13 -15 -2 -33 -11 -40 -20 -8 -11 -12 -12 -13
-4 0 21 40 53 63 50 12 -2 21 -7 20 -13z m1457 -10 c-7 -9 -27 -14 -49 -14
-23 1 -28 3 -13 6 12 2 22 9 22 14 0 5 12 9 26 9 22 0 25 -2 14 -15z m-1960
-20 c10 -12 10 -15 -3 -15 -8 0 -20 7 -27 15 -10 12 -10 15 3 15 8 0 20 -7 27
-15z m3810 -39 c0 -2 -8 -10 -17 -17 -16 -13 -17 -12 -4 4 13 16 21 21 21 13z
m-154 -65 c-9 -13 -16 -14 -35 -2 -12 8 -13 12 -1 26 12 14 15 14 28 1 8 -8
11 -19 8 -25z m104 30 c0 -9 -24 -21 -41 -21 -6 0 -7 5 -4 10 4 6 11 8 16 5 5
-4 9 -1 9 4 0 6 5 11 10 11 6 0 10 -4 10 -9z m-4010 -22 c0 -5 -9 -9 -20 -9
-19 0 -26 11 -14 23 8 8 34 -3 34 -14z m1857 5 c-3 -3 -12 -4 -19 -1 -8 3 -5
6 6 6 11 1 17 -2 13 -5z m1730 -26 c-3 -7 -5 -2 -5 12 0 14 2 19 5 13 2 -7 2
-19 0 -25z m-2770 7 c9 -10 23 -13 35 -9 11 3 36 3 56 -1 l37 -7 -38 -14 c-21
-7 -44 -11 -52 -8 -8 3 -19 -4 -25 -17 l-12 -22 -14 24 c-13 24 -19 69 -8 69
3 0 12 -7 21 -15z m983 -13 c-5 -9 -15 -32 -22 -49 -7 -18 -16 -33 -20 -33
-11 0 -10 18 2 25 6 3 10 15 10 26 0 24 21 59 32 53 4 -3 3 -13 -2 -22z
m-1743 12 c-3 -3 -12 -4 -19 -1 -8 3 -5 6 6 6 11 1 17 -2 13 -5z m3351 -1
c-24 -3 -38 -9 -38 -18 0 -8 -4 -17 -10 -20 -16 -10 -29 3 -23 25 5 17 13 20
57 18 43 -1 45 -2 14 -5z m952 -8 c7 -9 8 -15 2 -15 -5 0 -12 7 -16 15 -3 8
-4 15 -2 15 2 0 9 -7 16 -15z m-450 -39 c0 -14 5 -28 10 -31 6 -3 10 -15 10
-25 0 -11 8 -34 18 -52 10 -18 17 -39 15 -45 -6 -18 -73 37 -73 60 0 11 -8 17
-21 17 -15 0 -20 5 -17 22 4 29 26 34 30 7 2 -12 9 -24 17 -27 11 -4 12 3 7
32 -4 21 -10 44 -13 52 -3 8 0 14 6 14 6 0 11 -11 11 -24z m-3960 -27 c0 -5
-4 -9 -10 -9 -5 0 -10 7 -10 16 0 8 5 12 10 9 6 -3 10 -10 10 -16z m3517 -21
c-3 -7 -5 -2 -5 12 0 14 2 19 5 13 2 -7 2 -19 0 -25z m668 22 c3 -5 1 -10 -4
-10 -6 0 -11 5 -11 10 0 6 2 10 4 10 3 0 8 -4 11 -10z m-525 -15 c0 -8 -4 -15
-10 -15 -5 0 -10 7 -10 15 0 8 5 15 10 15 6 0 10 -7 10 -15z m-1275 -5 c-3 -5
-14 -10 -23 -9 -14 0 -13 2 3 9 27 11 27 11 20 0z m1704 -28 c-5 -2 -9 -13 -9
-25 0 -18 -2 -19 -10 -7 -5 8 -10 28 -10 44 0 29 0 29 19 10 10 -10 14 -20 10
-22z m412 12 c13 -14 17 -23 9 -19 -13 5 -46 45 -37 45 2 0 14 -11 28 -26z
m-2164 -10 c-3 -3 -12 -4 -19 -1 -8 3 -5 6 6 6 11 1 17 -2 13 -5z m823 -27 c0
-2 -9 -12 -19 -21 -19 -17 -19 -17 -14 3 3 12 12 21 19 21 8 0 14 -2 14 -3z
m1409 -38 c19 -32 -6 -21 -30 12 -20 29 -20 30 -2 18 11 -6 25 -20 32 -30z
m-2299 27 c0 -2 -7 -7 -16 -10 -8 -3 -12 -2 -9 4 6 10 25 14 25 6z m-870 -16
c0 -5 -2 -10 -4 -10 -3 0 -8 5 -11 10 -3 6 -1 10 4 10 6 0 11 -4 11 -10z m965
0 c3 -5 1 -10 -4 -10 -6 0 -11 5 -11 10 0 6 2 10 4 10 3 0 8 -4 11 -10z m-30
-28 c-3 -3 -11 0 -18 7 -9 10 -8 11 6 5 10 -3 15 -9 12 -12z m-155 -7 c-7 -8
-27 -15 -44 -15 -29 1 -30 1 -12 15 11 8 31 15 44 15 21 0 22 -2 12 -15z m954
-6 c4 -4 -4 -6 -18 -6 -21 0 -24 2 -15 13 7 8 15 11 18 7 3 -4 10 -11 15 -14z
m503 -26 c-3 -10 -5 -4 -5 12 0 17 2 24 5 18 2 -7 2 -21 0 -30z m-924 20 c-7
-2 -19 -2 -25 0 -7 3 -2 5 12 5 14 0 19 -2 13 -5z m1457 -3 c0 -5 -2 -10 -4
-10 -3 0 -8 5 -11 10 -3 6 -1 10 4 10 6 0 11 -4 11 -10z m430 0 c0 -5 -2 -10
-4 -10 -3 0 -8 5 -11 10 -3 6 -1 10 4 10 6 0 11 -4 11 -10z m-2190 -30 c0 -5
-7 -10 -15 -10 -8 0 -15 5 -15 10 0 6 7 10 15 10 8 0 15 -4 15 -10z m2313
-119 c15 -30 8 -49 -13 -36 -6 4 -20 25 -32 48 -11 23 -31 56 -44 73 -13 17
-24 35 -24 40 0 14 96 -92 113 -125z m-2673 109 c0 -5 -5 -10 -11 -10 -5 0 -7
5 -4 10 3 6 8 10 11 10 2 0 4 -4 4 -10z m2140 -11 c0 -6 -4 -7 -10 -4 -5 3
-10 11 -10 16 0 6 5 7 10 4 6 -3 10 -11 10 -16z m-2593 -11 c-3 -8 -6 -5 -6 6
-1 11 2 17 5 13 3 -3 4 -12 1 -19z m2017 -76 c-6 -13 -9 -10 -14 13 -3 17 -1
38 5 48 9 15 10 14 13 -14 2 -17 0 -38 -4 -47z m606 58 c0 -4 -6 -10 -14 -13
-10 -4 -12 0 -9 14 5 18 23 18 23 -1z m-2263 -6 c-16 -8 -36 -13 -45 -11 -12
3 -11 5 5 6 12 0 25 6 28 11 3 6 14 10 23 10 11 -1 8 -6 -11 -16z m138 6 c-4
-6 -2 -17 4 -24 9 -10 8 -15 -4 -20 -8 -3 -15 -16 -15 -28 0 -13 -5 -30 -10
-38 -8 -12 -10 -11 -10 7 0 12 -5 25 -10 28 -7 4 -7 12 0 25 5 10 10 28 10 39
0 15 6 21 21 21 11 0 17 -4 14 -10z m42 -16 c-3 -3 -12 -4 -19 -1 -8 3 -5 6 6
6 11 1 17 -2 13 -5z m1095 -16 c-6 -7 -13 -29 -17 -48 -4 -25 -12 -36 -24 -36
-26 0 -20 26 13 64 28 30 50 46 28 20z m-965 -4 c-3 -3 -12 -4 -19 -1 -8 3 -5
6 6 6 11 1 17 -2 13 -5z m1963 -9 c0 -8 -4 -15 -10 -15 -5 0 -7 7 -4 15 4 8 8
15 10 15 2 0 4 -7 4 -15z m-2394 -14 c-7 -11 -70 -41 -88 -41 -7 0 10 11 37
24 59 29 58 28 51 17z m1014 -3 c13 5 13 3 1 -11 -7 -10 -24 -17 -37 -17 -12
0 -26 -5 -30 -11 -9 -16 -26 5 -18 24 7 19 33 26 54 17 8 -4 22 -5 30 -2z
m697 -10 c-3 -8 -6 -5 -6 6 -1 11 2 17 5 13 3 -3 4 -12 1 -19z m-73 -3 c-4 -8
-15 -32 -25 -52 -10 -20 -19 -45 -19 -54 0 -20 -39 -33 -46 -15 -3 7 11 37 31
67 19 29 35 57 35 61 0 5 7 8 15 8 9 0 12 -6 9 -15z m-1296 -16 c-9 -5 -36
-24 -60 -42 -53 -39 -95 -67 -104 -67 -9 0 56 59 78 71 10 5 18 16 18 23 0 8
17 18 38 23 41 11 56 7 30 -8z m-455 -26 c-7 -2 -19 -2 -25 0 -7 3 -2 5 12 5
14 0 19 -2 13 -5z m3047 -25 c0 -6 -7 -5 -15 2 -12 10 -15 10 -15 0 0 -8 -2
-11 -5 -8 -3 3 -3 13 1 22 5 13 9 14 20 5 8 -6 14 -16 14 -21z m-3899 -10 c10
-13 18 -28 19 -34 0 -6 6 -17 13 -23 8 -6 24 -30 36 -54 19 -36 31 -47 73 -62
36 -13 46 -20 36 -27 -26 -19 117 -2 162 19 25 12 52 23 60 26 8 3 32 12 53
21 20 9 37 13 37 9 0 -10 -95 -52 -133 -60 -17 -3 -26 -11 -25 -20 2 -10 -11
-20 -38 -28 -66 -19 -70 -25 -38 -51 28 -23 29 -23 6 -24 -18 0 -22 -4 -17
-19 9 -29 -14 -36 -37 -11 -11 12 -27 19 -35 16 -8 -3 -20 -6 -26 -6 -7 0 -3
-7 8 -16 19 -14 19 -15 -3 -20 -13 -4 -22 -14 -22 -25 0 -20 -15 -26 -25 -9
-3 6 -13 10 -21 10 -10 0 -14 -12 -14 -42 0 -23 -3 -38 -7 -34 -4 3 -6 24 -5
46 2 24 -2 40 -8 40 -14 0 -63 -52 -97 -102 -24 -36 -43 -49 -43 -29 0 5 20
35 43 67 40 52 43 58 28 73 -11 11 -29 15 -53 12 -23 -2 -38 1 -38 8 0 12 37
34 62 35 10 1 18 4 18 9 0 4 0 25 0 48 0 32 -3 40 -15 35 -9 -3 -15 0 -15 9 0
9 6 12 15 9 9 -4 15 0 15 9 0 8 -9 17 -21 20 -12 3 -18 10 -15 15 3 6 -1 26
-9 46 -14 32 -14 39 0 66 8 16 15 36 15 45 0 9 4 14 9 10 5 -3 12 -1 16 5 9
15 15 13 36 -12z m812 15 c-7 -2 -19 -2 -25 0 -7 3 -2 5 12 5 14 0 19 -2 13
-5z m2131 -8 c-4 -8 -8 -15 -10 -15 -2 0 -4 7 -4 15 0 8 4 15 10 15 5 0 7 -7
4 -15z m-2207 -1 c21 -6 21 -7 7 -30 -15 -21 -14 -25 0 -39 9 -9 16 -22 16
-30 0 -7 7 -15 15 -19 23 -9 18 -20 -17 -35 -140 -60 -155 -69 -162 -95 -6
-25 -7 -26 -26 -8 -14 12 -20 34 -22 77 -3 51 -6 60 -20 57 -25 -4 -23 15 2
23 11 3 20 11 20 16 0 5 11 9 24 9 14 0 27 4 31 9 3 5 19 12 35 16 17 4 38 18
46 31 18 26 19 26 51 18z m2030 -26 c-3 -7 -5 -2 -5 12 0 14 2 19 5 13 2 -7 2
-19 0 -25z m-1122 -48 c-8 -23 -15 -53 -15 -66 0 -12 -4 -26 -10 -29 -6 -4
-10 10 -10 34 0 23 -4 41 -10 41 -5 0 -10 -4 -10 -9 0 -5 -8 -12 -17 -16 -10
-3 0 13 22 37 66 71 72 72 50 8z m1342 8 c-3 -8 -6 -5 -6 6 -1 11 2 17 5 13 3
-3 4 -12 1 -19z m-3145 -16 c-7 -2 -12 -12 -12 -22 0 -10 -4 -22 -10 -25 -16
-10 -12 14 7 46 10 17 20 24 22 17 2 -6 -1 -14 -7 -16z m3565 -4 c-3 -7 -5 -2
-5 12 0 14 2 19 5 13 2 -7 2 -19 0 -25z m568 -8 c14 -22 25 -45 25 -52 0 -6
-13 9 -30 35 -16 26 -30 50 -30 52 0 13 12 1 35 -35z m-838 -2 c-3 -7 -5 -2
-5 12 0 14 2 19 5 13 2 -7 2 -19 0 -25z m313 17 c0 -8 -2 -15 -4 -15 -2 0 -6
7 -10 15 -3 8 -1 15 4 15 6 0 10 -7 10 -15z m-2583 -11 c-3 -3 -12 -4 -19 -1
-8 3 -5 6 6 6 11 1 17 -2 13 -5z m433 -14 c0 -5 -5 -10 -11 -10 -5 0 -7 5 -4
10 3 6 8 10 11 10 2 0 4 -4 4 -10z m2157 -22 c-3 -8 -6 -5 -6 6 -1 11 2 17 5
13 3 -3 4 -12 1 -19z m-483 -21 c-3 -66 -5 -77 -11 -77 -5 0 -9 23 -10 51 -1
34 3 49 10 46 7 -2 12 -11 11 -20z m453 -9 c-3 -7 -5 -2 -5 12 0 14 2 19 5 13
2 -7 2 -19 0 -25z m-297 6 c0 -8 -4 -12 -10 -9 -5 3 -10 10 -10 16 0 5 5 9 10
9 6 0 10 -7 10 -16z m-3342 -36 c-13 -24 -25 -45 -28 -48 -3 -3 -11 -18 -18
-34 -7 -16 -15 -26 -18 -23 -8 7 67 147 78 147 5 0 -1 -19 -14 -42z m1432 28
c0 -6 -82 -58 -86 -54 -2 2 15 16 38 31 42 27 48 30 48 23z m289 -25 c-13 -11
-26 -17 -29 -14 -6 6 30 33 43 33 5 0 -1 -9 -14 -19z m1976 10 c3 -5 1 -12 -5
-16 -5 -3 -10 1 -10 9 0 18 6 21 15 7z m565 -45 c0 -5 -9 3 -20 17 -11 14 -20
29 -20 34 1 10 39 -39 40 -51z m-1044 -34 c-15 -143 -24 -168 -19 -52 3 63 8
119 11 125 11 17 14 -16 8 -73z m-1400 31 c-10 -10 -19 5 -10 18 6 11 8 11 12
0 2 -7 1 -15 -2 -18z m1844 1 c0 -8 -4 -14 -10 -14 -5 0 -10 9 -10 21 0 11 5
17 10 14 6 -3 10 -13 10 -21z m71 -68 c5 -6 9 -26 9 -45 -1 -52 -18 -18 -23
45 -3 27 -2 40 0 29 3 -11 9 -24 14 -29z m568 14 c12 -22 18 -40 13 -40 -4 0
-18 18 -31 40 -12 22 -18 40 -13 40 4 0 18 -18 31 -40z m-3211 -22 c16 -22 79
-35 95 -19 6 6 17 11 24 11 11 0 11 -4 1 -20 -8 -12 -24 -20 -40 -20 -28 0
-78 -49 -78 -76 0 -8 -7 -14 -15 -14 -8 0 -15 -4 -15 -9 0 -17 -28 -19 -55 -5
-31 16 -131 19 -140 4 -3 -5 -13 -10 -21 -10 -24 0 -17 48 11 66 14 9 25 22
25 29 0 15 22 25 54 25 47 0 84 21 95 52 10 27 13 29 28 17 10 -8 24 -22 31
-31z m197 32 c-3 -5 -11 -10 -16 -10 -6 0 -7 5 -4 10 3 6 11 10 16 10 6 0 7
-4 4 -10z m2382 -37 c-3 -10 -5 -2 -5 17 0 19 2 27 5 18 2 -10 2 -26 0 -35z
m-2417 13 c0 -3 -4 -8 -10 -11 -5 -3 -10 -1 -10 4 0 6 5 11 10 11 6 0 10 -2
10 -4z m-1342 -58 c-12 -23 -24 -36 -26 -30 -3 11 34 72 44 72 2 0 -6 -19 -18
-42z m4432 2 c0 -5 -4 -10 -10 -10 -5 0 -10 5 -10 10 0 6 5 10 10 10 6 0 10
-4 10 -10z m-4255 -28 c-6 -5 -55 -19 -110 -32 -55 -12 -108 -30 -118 -38 -13
-11 -20 -13 -25 -5 -4 6 -16 13 -27 16 -16 4 -14 5 7 6 15 0 33 10 41 21 12
18 18 19 39 9 19 -8 31 -8 46 0 11 6 33 11 49 11 15 0 35 5 43 10 19 12 68 13
55 2z m3608 -5 c3 -8 1 -20 -4 -28 -6 -10 -9 -7 -9 14 0 29 5 35 13 14z m690
-49 c56 -118 77 -166 77 -177 0 -22 31 -60 46 -54 9 3 14 -2 14 -16 0 -25 45
-51 92 -52 33 -1 32 -1 -7 -9 -32 -7 -47 -4 -74 11 -40 23 -50 15 -52 -41 l-2
-35 -7 35 c-4 19 -8 30 -9 24 -1 -14 -39 -25 -46 -14 -3 4 5 10 17 13 28 8 17
19 -30 32 -54 15 -53 35 2 35 58 0 66 16 38 73 -11 23 -27 58 -35 77 -8 19
-27 61 -41 93 -28 63 -31 71 -17 63 5 -3 20 -29 34 -58z m-3118 22 c16 -16 26
-30 22 -30 -8 0 -57 46 -57 54 0 11 5 7 35 -24z m2495 7 c0 -13 3 -26 6 -29 3
-3 7 -52 9 -109 5 -111 -10 -126 -19 -19 -3 36 -8 91 -12 123 -4 38 -2 57 5
57 6 0 11 -10 11 -23z m-2260 -7 c-6 -11 -16 -20 -22 -20 -6 0 -3 9 7 20 10
11 20 20 22 20 2 0 -1 -9 -7 -20z m1731 -96 c1 -54 5 -106 10 -115 4 -9 11
-93 15 -188 l7 -172 29 -24 c16 -14 35 -25 41 -25 27 0 -11 -18 -48 -22 -36
-5 -42 -3 -53 20 -7 16 -8 31 -2 42 5 10 7 53 4 97 -4 43 -6 90 -6 106 0 15 0
47 0 72 1 67 -1 84 -10 79 -4 -3 -8 19 -8 48 0 61 11 190 16 185 2 -2 4 -48 5
-103z m-1099 14 c-7 -7 -12 -8 -12 -2 0 14 12 26 19 19 2 -3 -1 -11 -7 -17z
m1588 -3 c0 -8 -4 -15 -10 -15 -5 0 -10 7 -10 15 0 8 5 15 10 15 6 0 10 -7 10
-15z m-2320 -24 c-11 -21 -30 -37 -30 -25 0 8 30 44 37 44 2 0 -1 -9 -7 -19z
m-340 -21 c0 -11 -4 -20 -10 -20 -5 0 -10 -5 -10 -11 0 -6 7 -9 14 -6 20 8 57
-92 54 -143 -3 -38 -3 -38 -53 -44 -93 -12 -115 -18 -115 -32 0 -11 -4 -10
-20 3 -17 15 -18 19 -5 33 29 32 18 47 -45 59 -39 8 -60 17 -60 26 0 14 32 22
101 24 30 1 46 10 83 48 25 25 46 55 46 65 0 10 5 18 10 18 6 0 10 -9 10 -20z
m-950 -13 c0 -7 -16 -30 -35 -51 -44 -48 -45 -37 -2 20 36 48 37 49 37 31z
m3630 -182 c0 -70 4 -115 10 -115 6 0 10 15 10 34 0 67 17 44 24 -31 9 -108 8
-135 -5 -128 -6 4 -8 14 -5 22 7 17 -13 93 -25 93 -4 0 -10 -19 -13 -42 -11
-75 -11 -103 0 -101 6 1 46 5 90 9 43 3 86 12 94 19 12 10 29 10 78 2 34 -6
62 -14 62 -19 0 -4 6 -8 14 -8 20 0 63 -54 71 -90 8 -37 -4 -118 -15 -100 -6
9 -12 9 -29 1 -25 -14 -26 -20 -5 -36 13 -9 -8 -16 -117 -38 -73 -14 -137 -23
-141 -21 -12 8 -9 24 5 24 16 1 48 29 70 62 21 34 22 52 1 44 -11 -4 -18 1
-21 14 -3 11 -13 20 -23 20 -10 0 -25 3 -34 6 -9 3 -25 -4 -39 -20 -13 -14
-34 -26 -46 -26 -11 0 -21 -5 -21 -10 0 -7 -13 -8 -35 -4 -21 4 -56 0 -92 -11
-32 -9 -64 -19 -70 -21 -7 -2 -13 -11 -13 -19 0 -9 -6 -23 -14 -31 -8 -7 -12
-22 -10 -31 4 -22 -42 -60 -80 -67 -38 -7 -61 -27 -44 -37 9 -6 6 -9 -9 -9
-13 0 -23 -4 -23 -10 0 -5 -11 -10 -23 -10 -15 0 -40 -16 -65 -42 -53 -55 -80
-78 -91 -78 -5 0 -11 -9 -14 -20 -3 -14 -14 -20 -32 -20 -14 0 -24 -4 -21 -9
3 -5 -10 -16 -30 -26 -33 -15 -117 -93 -139 -129 -6 -9 -34 -20 -65 -26 -30
-6 -67 -19 -81 -30 -15 -10 -38 -22 -51 -25 -14 -4 -24 -14 -25 -26 -2 -23
-90 -108 -111 -109 -8 0 -16 9 -19 20 -3 11 -9 20 -14 20 -32 0 29 145 98 235
81 104 203 215 279 253 23 12 55 34 70 49 16 15 41 34 56 42 14 7 48 31 74 53
27 22 60 46 75 54 15 7 36 25 48 40 11 14 24 23 29 20 5 -3 20 2 33 12 13 10
38 26 54 34 17 8 62 31 100 50 40 21 101 41 142 48 39 7 77 16 84 21 9 5 14
61 17 198 5 206 22 265 22 76z m-3710 75 c0 -5 -4 -10 -10 -10 -5 0 -10 5 -10
10 0 6 5 10 10 10 6 0 10 -4 10 -10z m-50 -54 c0 -3 -4 -8 -10 -11 -5 -3 -10
-1 -10 4 0 6 5 11 10 11 6 0 10 -2 10 -4z m1184 -81 c-4 -8 -10 -15 -14 -15
-4 0 -13 -15 -21 -32 -7 -18 -23 -47 -37 -65 -19 -25 -21 -36 -13 -52 16 -28
14 -61 -4 -61 -8 0 -19 9 -25 20 -10 19 -13 19 -41 5 l-30 -16 14 28 c17 33
12 53 -11 53 -15 1 -15 2 1 14 21 16 21 23 2 43 -9 8 -13 18 -10 21 3 3 17 -6
30 -22 29 -33 39 -29 110 43 54 56 57 58 49 36z m746 -68 c-22 -33 -22 -23 2
25 7 15 15 23 16 18 2 -6 -6 -25 -18 -43z m-2490 -32 c0 -8 -7 -15 -15 -15
-16 0 -20 12 -8 23 11 12 23 8 23 -8z m2391 -133 c-11 -23 -26 -44 -32 -48 -7
-4 1 16 16 45 33 60 46 62 16 3z m-424 -94 c-3 -8 -6 -5 -6 6 -1 11 2 17 5 13
3 -3 4 -12 1 -19z m327 -68 c-10 -22 -22 -40 -26 -40 -13 0 -9 14 12 40 11 14
20 31 20 39 0 8 3 11 7 8 3 -4 -2 -25 -13 -47z m-282 -2 c9 -7 18 -22 20 -33
2 -15 -2 -19 -17 -17 -11 2 -27 4 -35 5 -8 1 -21 10 -29 21 -12 15 -12 19 0
27 20 12 43 11 61 -3z m2374 -62 c7 -29 -1 -46 -22 -46 -9 0 -14 10 -14 28 0
47 25 59 36 18z m479 -16 c3 -5 15 -10 25 -10 37 0 90 -102 90 -174 0 -41 -26
-73 -108 -127 -66 -45 -152 -79 -197 -79 -18 0 -19 23 -3 49 29 46 -45 161
-103 161 -36 0 -119 -36 -120 -52 -1 -7 -1 -22 0 -34 1 -13 -8 -25 -26 -35
-15 -7 -44 -25 -64 -39 -20 -14 -47 -32 -59 -40 -72 -47 -179 -145 -180 -163
0 -19 -159 -165 -203 -188 -26 -13 -68 -43 -93 -66 -25 -24 -51 -43 -57 -43
-6 0 -18 -6 -26 -14 -9 -7 -41 -16 -72 -20 -53 -5 -58 -4 -73 19 -24 37 -19
134 7 118 5 -3 7 -2 4 3 -9 15 22 70 46 81 13 6 31 28 42 49 28 56 45 74 69
74 18 0 19 2 6 11 -12 9 -11 10 5 4 50 -16 75 -17 90 -1 9 9 24 16 34 16 10 0
28 12 42 26 39 42 298 256 369 305 35 24 71 50 78 57 9 8 26 10 48 6 19 -3 34
-2 34 3 0 16 63 32 180 44 80 9 119 17 128 28 11 13 56 38 74 40 4 1 10 -3 13
-9z m-2682 -98 c-3 -12 -9 -22 -14 -22 -12 0 -11 7 3 30 15 24 19 21 11 -8z
m2699 -321 c32 -12 90 -70 106 -104 17 -38 15 -112 -4 -148 -8 -17 -31 -48
-51 -70 -29 -32 -34 -44 -28 -66 10 -42 38 -103 47 -103 4 0 8 -29 8 -64 0
-47 -7 -81 -29 -132 -39 -95 -89 -199 -127 -264 -18 -30 -45 -87 -60 -125 -15
-39 -30 -74 -35 -80 -21 -28 -108 -188 -118 -215 -11 -33 -61 -99 -61 -81 0 5
4 12 9 15 5 3 12 21 15 40 4 18 18 55 31 82 14 27 25 53 25 58 0 5 7 18 16 28
10 10 18 39 20 69 1 31 10 62 21 78 11 14 25 45 31 68 7 23 19 49 27 57 8 8
15 19 15 25 0 5 8 16 18 23 20 15 32 41 57 121 10 31 24 62 32 68 7 6 13 18
13 25 0 8 8 22 18 32 11 11 23 49 31 100 12 75 12 87 -4 128 l-17 46 -69 -69
c-95 -94 -114 -99 -56 -16 42 63 55 83 69 113 7 14 21 31 31 39 24 17 56 88
57 122 0 82 -51 125 -130 108 -40 -8 -54 -20 -110 -86 -94 -111 -116 -133
-128 -133 -17 0 -72 -50 -88 -81 -8 -16 -21 -29 -28 -29 -13 0 -122 -62 -140
-80 -7 -7 -63 -4 -74 5 -8 7 13 35 27 35 17 0 148 130 196 195 17 22 75 84
129 138 76 75 104 97 119 93 22 -5 77 19 77 34 0 12 81 13 112 1z m-729 -653
c-9 -10 -22 -18 -28 -18 -7 0 -18 -7 -25 -15 -22 -27 -31 -4 -11 28 21 33 61
51 73 33 4 -6 0 -19 -9 -28z m-5946 -334 c-3 -3 -12 -4 -19 -1 -8 3 -5 6 6 6
11 1 17 -2 13 -5z m6273 -548 c0 -2 -7 -9 -15 -16 -13 -11 -14 -10 -9 4 5 14
24 23 24 12z m-77 -101 c-3 -9 -8 -14 -10 -11 -3 3 -2 9 2 15 9 16 15 13 8 -4z
m-3246 -217 c-3 -8 -6 -5 -6 6 -1 11 2 17 5 13 3 -3 4 -12 1 -19z m-30 -80
c-3 -8 -6 -5 -6 6 -1 11 2 17 5 13 3 -3 4 -12 1 -19z m-12 -55 c-3 -16 -9 -43
-12 -61 -3 -18 -9 -35 -14 -38 -5 -3 -9 -18 -9 -34 0 -16 -5 -32 -10 -35 -11
-7 -10 -2 11 85 6 25 13 60 16 78 3 17 10 32 15 32 6 0 8 -11 3 -27z m-66
-237 c-9 -8 -10 -7 -5 7 3 10 7 26 7 35 1 9 4 6 6 -7 3 -13 -1 -28 -8 -35z
m-22 -73 c-3 -10 -5 -4 -5 12 0 17 2 24 5 18 2 -7 2 -21 0 -30z m-8 -45 c0 -7
-4 -22 -9 -33 -7 -17 -9 -15 -9 13 -1 17 4 32 9 32 6 0 10 -6 9 -12z m-24 -90
c-4 -13 -9 -38 -12 -55 -3 -18 -10 -33 -15 -33 -6 0 -8 10 -4 23 4 12 9 37 13
55 3 17 10 32 15 32 6 0 7 -10 3 -22z m-38 -155 c-3 -10 -5 -4 -5 12 0 17 2
24 5 18 2 -7 2 -21 0 -30z m-50 -160 c-3 -10 -5 -4 -5 12 0 17 2 24 5 18 2 -7
2 -21 0 -30z m-8 -35 c0 -7 -4 -22 -9 -33 -7 -17 -9 -15 -9 13 -1 17 4 32 9
32 6 0 10 -6 9 -12z m-23 -105 c-10 -26 -18 -8 -9 23 5 21 8 24 11 11 2 -10 1
-25 -2 -34z m-19 -70 c-3 -10 -5 -4 -5 12 0 17 2 24 5 18 2 -7 2 -21 0 -30z
m-50 -160 c-3 -10 -5 -4 -5 12 0 17 2 24 5 18 2 -7 2 -21 0 -30z m-19 -90 c-5
-32 -13 -66 -18 -75 -6 -10 -10 -34 -10 -53 0 -20 -4 -34 -9 -31 -9 6 5 112
19 138 6 10 10 31 10 48 0 16 4 30 8 30 5 0 5 -26 0 -57z m-51 -220 c-3 -10
-5 -4 -5 12 0 17 2 24 5 18 2 -7 2 -21 0 -30z m-41 -167 c-19 -81 -33 -137
-47 -182 -5 -17 -9 -42 -9 -57 0 -14 -4 -29 -10 -32 -5 -3 -10 -18 -10 -33 0
-15 -5 -34 -10 -42 -16 -25 -12 5 16 125 15 61 29 127 31 148 3 20 9 40 14 43
5 3 9 21 9 40 0 19 5 34 10 34 6 0 11 15 11 33 1 19 3 25 6 13 3 -10 -2 -51
-11 -90z"/>
<path d="M8837 7822 c-8 -12 3 -81 14 -88 15 -9 14 74 -1 89 -4 5 -10 5 -13
-1z"/>
<path d="M8947 7663 c-11 -10 -8 -83 3 -83 6 0 10 20 10 45 0 46 -2 50 -13 38z"/>
<path d="M9190 7475 c0 -8 -4 -15 -8 -15 -13 0 -8 -70 4 -78 6 -4 13 -13 15
-20 5 -14 59 61 59 81 0 7 -16 20 -35 29 -30 15 -35 15 -35 3z"/>
<path d="M8960 7453 c0 -16 3 -38 6 -51 5 -18 9 -20 20 -11 17 14 18 27 2 62
-17 35 -28 34 -28 0z"/>
<path d="M7952 7445 c-20 -11 -21 -14 -7 -25 11 -10 12 -16 4 -26 -9 -11 2
-19 52 -43 95 -43 115 -45 134 -19 15 22 15 23 -17 29 -26 4 -29 7 -16 13 10
5 30 2 48 -8 30 -15 60 -12 60 5 0 9 -95 55 -145 71 -50 15 -89 16 -113 3z
m121 -62 c-7 -2 -21 -2 -30 0 -10 3 -4 5 12 5 17 0 24 -2 18 -5z"/>
<path d="M8290 7440 c0 -5 9 -10 20 -10 11 0 20 5 20 10 0 6 -9 10 -20 10 -11
0 -20 -4 -20 -10z"/>
<path d="M8166 7424 c-4 -10 -1 -14 6 -12 15 5 23 28 10 28 -5 0 -13 -7 -16
-16z"/>
<path d="M8500 7325 c7 -9 15 -13 17 -11 7 7 -7 26 -19 26 -6 0 -6 -6 2 -15z"/>
<path d="M9265 7315 c0 -14 3 -25 8 -25 4 0 7 11 7 25 0 14 -3 25 -7 25 -5 0
-8 -11 -8 -25z"/>
<path d="M8170 7320 c0 -12 53 -40 75 -40 23 0 10 16 -27 34 -36 18 -48 20
-48 6z"/>
<path d="M9180 7309 c0 -11 4 -18 10 -14 5 3 7 12 3 20 -7 21 -13 19 -13 -6z"/>
<path d="M8288 7285 c2 -14 10 -25 17 -25 10 0 11 5 2 25 -15 32 -26 32 -19 0z"/>
<path d="M6787 7243 c-4 -3 -7 -24 -7 -46 0 -23 -6 -56 -12 -75 -12 -33 -12
-35 29 -73 47 -43 83 -51 83 -19 0 11 8 24 18 27 33 13 50 38 57 85 6 42 9 45
22 33 20 -21 23 -19 23 11 0 22 -3 25 -22 21 -13 -4 -29 0 -38 8 -9 8 -40 19
-70 25 -62 12 -74 12 -83 3z m127 -99 c9 -25 7 -52 -5 -60 -8 -5 -10 1 -7 20
3 14 1 29 -3 32 -12 7 -12 24 0 24 5 0 12 -7 15 -16z"/>
<path d="M9232 7189 c-11 -18 -11 -24 3 -39 41 -45 82 -15 48 36 -19 30 -34
30 -51 3z"/>
<path d="M7017 7168 c-7 -26 -9 -24 23 -31 34 -8 54 5 45 32 -9 30 -60 29 -68
-1z"/>
<path d="M8255 7160 c3 -5 15 -10 26 -10 10 0 19 5 19 10 0 6 -12 10 -26 10
-14 0 -23 -4 -19 -10z"/>
<path d="M9416 7124 c-4 -9 -5 -19 -2 -21 7 -7 46 17 46 27 0 17 -37 11 -44
-6z"/>
<path d="M6960 7037 c0 -9 5 -19 10 -22 24 -15 7 -24 -35 -18 -37 5 -46 3 -51
-12 -5 -13 1 -25 22 -42 33 -26 69 -31 60 -8 -7 18 -2 19 23 4 12 -8 23 -9 36
-2 17 10 16 12 -11 26 -16 9 -24 16 -18 17 5 0 19 -7 30 -15 20 -15 60 -20 67
-7 3 4 8 21 11 39 8 36 5 38 -86 49 -49 5 -58 4 -58 -9z"/>
<path d="M7990 7030 c-11 -7 -7 -10 18 -10 20 0 31 4 27 10 -8 13 -26 13 -45
0z"/>
<path d="M9392 7031 c2 -7 7 -12 11 -12 12 1 9 15 -3 20 -7 2 -11 -2 -8 -8z"/>
<path d="M7667 7024 c-5 -5 -49 -12 -98 -15 -83 -6 -109 -12 -98 -23 2 -3 55
-8 116 -12 80 -5 125 -3 158 6 41 12 63 26 53 35 -8 8 -124 16 -131 9z"/>
<path d="M7835 7017 c-13 -11 -15 -16 -6 -22 7 -4 18 -2 24 4 6 6 19 11 30 11
10 0 15 5 12 10 -9 14 -38 12 -60 -3z"/>
<path d="M7408 6973 c6 -2 18 -2 25 0 6 3 1 5 -13 5 -14 0 -19 -2 -12 -5z"/>
<path d="M7206 6955 c-69 -16 -82 -25 -67 -52 17 -33 189 -41 228 -11 8 6 25
5 47 -3 31 -11 43 -10 85 5 29 10 59 15 72 11 13 -5 19 -3 15 3 -11 18 -97 42
-177 48 -77 7 -78 7 -90 -20 -7 -14 -20 -26 -30 -26 -10 0 -21 -4 -24 -10 -3
-5 -10 -10 -16 -10 -17 0 -9 22 16 42 27 21 33 39 13 37 -7 -1 -39 -7 -72 -14z"/>
<path d="M8205 6940 c3 -5 19 -10 36 -10 16 0 29 5 29 10 0 6 -16 10 -36 10
-21 0 -33 -4 -29 -10z"/>
<path d="M9306 6933 c-13 -13 -5 -43 13 -53 28 -15 51 -12 51 5 0 8 -4 15 -10
15 -5 0 -19 9 -29 19 -11 11 -22 17 -25 14z"/>
<path d="M8188 6823 c6 -2 18 -2 25 0 6 3 1 5 -13 5 -14 0 -19 -2 -12 -5z"/>
<path d="M9333 6823 c9 -2 23 -2 30 0 6 3 -1 5 -18 5 -16 0 -22 -2 -12 -5z"/>
<path d="M8052 6779 c-18 -5 -30 -14 -27 -19 3 -6 15 -5 30 0 14 6 27 10 30
10 3 0 10 0 16 0 5 0 7 5 4 10 -7 11 -9 11 -53 -1z"/>
<path d="M7975 6760 c-3 -5 -2 -10 4 -10 5 0 13 5 16 10 3 6 2 10 -4 10 -5 0
-13 -4 -16 -10z"/>
<path d="M8148 6723 c6 -2 18 -2 25 0 6 3 1 5 -13 5 -14 0 -19 -2 -12 -5z"/>
<path d="M8248 6723 c6 -2 18 -2 25 0 6 3 1 5 -13 5 -14 0 -19 -2 -12 -5z"/>
<path d="M8028 6696 c-15 -8 -29 -12 -32 -8 -3 3 -6 -2 -6 -10 0 -27 24 -27
80 3 l55 28 -35 0 c-19 1 -47 -5 -62 -13z"/>
<path d="M9200 6701 c0 -5 7 -12 16 -15 14 -5 15 -4 4 9 -14 17 -20 19 -20 6z"/>
<path d="M7879 6662 c-9 -9 -23 -30 -32 -47 -8 -16 -25 -38 -37 -48 -12 -10
-20 -23 -17 -30 2 -7 -3 -17 -11 -23 -13 -9 -11 -12 13 -18 29 -7 65 15 65 41
0 7 4 13 9 13 5 0 12 12 16 28 3 15 17 41 31 59 13 17 24 34 24 37 0 13 -46 4
-61 -12z"/>
<path d="M8960 6626 c0 -25 4 -47 9 -50 12 -8 23 39 15 69 -10 40 -24 29 -24
-19z"/>
<path d="M8197 6640 c-3 -13 0 -20 9 -20 8 0 14 9 14 20 0 11 -4 20 -9 20 -5
0 -11 -9 -14 -20z"/>
<path d="M8258 6653 c7 -3 16 -2 19 1 4 3 -2 6 -13 5 -11 0 -14 -3 -6 -6z"/>
<path d="M8150 6640 c0 -5 7 -10 15 -10 8 0 15 5 15 10 0 6 -7 10 -15 10 -8 0
-15 -4 -15 -10z"/>
<path d="M8110 6618 c-1 -7 -24 -24 -53 -38 -53 -25 -61 -32 -86 -63 -12 -16
-12 -17 5 -11 10 4 26 13 34 19 8 7 31 16 50 20 41 9 114 55 103 65 -17 16
-53 21 -53 8z"/>
<path d="M7997 6606 c-4 -10 -1 -13 8 -9 8 3 12 9 9 14 -7 12 -11 11 -17 -5z"/>
<path d="M7933 6589 c-7 -7 -13 -18 -13 -24 0 -7 -9 -20 -20 -30 -18 -17 -27
-45 -14 -45 3 0 20 15 38 33 25 24 32 37 27 55 -5 18 -8 21 -18 11z"/>
<path d="M8367 6569 c-4 -16 -3 -18 9 -8 16 13 19 29 5 29 -5 0 -11 -9 -14
-21z"/>
<path d="M8210 6559 c0 -3 -10 -9 -22 -13 -19 -5 -21 -8 -8 -16 11 -8 5 -9
-21 -4 -21 3 -39 1 -43 -4 -3 -6 -23 -16 -44 -23 -55 -18 -95 -48 -83 -63 7
-9 7 -16 0 -23 -16 -16 6 -26 30 -13 30 16 49 12 21 -5 -47 -27 -53 -28 -71
-17 -15 10 -18 7 -24 -19 -5 -22 -21 -39 -61 -64 -62 -40 -95 -47 -44 -10 19
14 40 25 47 25 7 0 13 7 13 15 0 16 -25 21 -35 6 -3 -5 -18 -12 -34 -16 -16
-3 -39 -17 -51 -30 -20 -21 -21 -27 -9 -41 11 -14 10 -18 -6 -30 -17 -13 -18
-16 -5 -25 12 -8 10 -9 -9 -7 -13 2 -26 -3 -28 -9 -5 -15 26 -30 36 -17 3 5
21 10 39 11 l33 2 -31 -25 c-24 -21 -36 -24 -61 -19 -25 6 -30 4 -23 -6 5 -8
7 -22 6 -31 -3 -19 32 -26 42 -9 3 5 30 20 59 35 61 30 97 58 97 76 0 7 8 10
19 7 11 -3 30 5 46 19 16 13 32 24 36 24 4 0 11 9 14 21 4 12 12 18 21 15 17
-7 19 10 2 20 -6 4 -14 2 -16 -4 -2 -7 -10 -12 -17 -12 -7 0 -20 -11 -29 -25
-10 -16 -26 -25 -41 -25 -14 0 -25 -4 -25 -10 0 -12 -70 -42 -84 -36 -6 2 -4
5 4 5 8 1 21 10 28 21 7 11 18 20 26 20 8 0 31 17 51 37 40 40 66 56 108 67
30 7 117 64 130 84 5 7 18 10 33 6 19 -5 23 -3 18 9 -3 9 9 28 30 49 35 34 46
70 26 83 -5 3 -10 1 -10 -4 0 -6 -11 -11 -25 -11 -14 0 -25 4 -25 8 0 5 -7 9
-15 9 -8 0 -15 -4 -15 -8z m27 -23 c0 -8 -6 -12 -14 -9 -7 3 -13 9 -13 14 0 5
6 9 13 9 8 0 14 -6 14 -14z"/>
<path d="M8639 6519 c-15 -21 -18 -34 -11 -41 14 -14 64 35 56 56 -9 23 -20
20 -45 -15z"/>
<path d="M8351 6531 c-7 -5 -11 -16 -9 -25 3 -15 5 -15 23 -2 22 16 10 41 -14
27z"/>
<path d="M8585 6520 c-3 -5 1 -10 9 -10 8 0 18 5 21 10 3 6 -1 10 -9 10 -8 0
-18 -4 -21 -10z"/>
<path d="M8576 6492 c-8 -14 12 -38 23 -27 6 6 4 14 -4 22 -8 7 -16 9 -19 5z"/>
<path d="M8525 6470 c3 -5 -1 -10 -7 -13 -16 -5 -9 -14 17 -19 27 -4 32 28 5
35 -11 3 -18 1 -15 -3z"/>
<path d="M8715 6440 c-15 -17 -16 -20 -3 -20 9 0 19 7 22 16 10 25 1 27 -19 4z"/>
<path d="M8781 6444 c0 -11 3 -14 6 -6 3 7 2 16 -1 19 -3 4 -6 -2 -5 -13z"/>
<path d="M7704 6405 c-55 -26 -76 -46 -73 -67 1 -7 -2 -22 -6 -32 -6 -15 -1
-25 21 -44 16 -14 29 -29 29 -33 0 -4 6 -14 13 -21 10 -10 15 -10 22 2 13 20
13 40 0 40 -20 0 -9 27 20 48 30 22 41 61 18 58 -22 -2 -20 19 1 22 14 2 20
10 18 22 -5 30 -10 31 -63 5z m0 -64 c3 -5 -1 -11 -9 -15 -9 -3 -15 0 -15 9 0
16 16 20 24 6z"/>
<path d="M7863 6404 c-18 -9 -33 -22 -33 -29 0 -15 27 -28 35 -16 2 5 21 16
40 25 35 17 39 36 7 36 -9 0 -32 -8 -49 -16z"/>
<path d="M8550 6410 c-8 -5 -25 -7 -37 -4 -15 4 -25 0 -32 -14 -6 -12 -21 -24
-33 -28 -21 -6 -21 -7 -3 -20 16 -12 20 -11 35 6 13 15 20 16 28 8 9 -9 12 -9
12 0 0 7 9 12 21 12 11 0 17 5 14 10 -3 6 1 10 9 10 9 0 16 7 16 15 0 17 -9
19 -30 5z"/>
<path d="M8268 6376 c-10 -7 -18 -18 -18 -25 0 -6 -4 -12 -10 -12 -33 -4 -100
-38 -106 -54 -3 -7 -1 -22 4 -31 9 -16 12 -15 35 9 13 15 31 27 38 27 23 0 59
29 53 43 -2 7 5 23 16 35 23 24 15 29 -12 8z"/>
<path d="M8376 6368 c-23 -32 -9 -36 20 -5 18 19 21 27 10 27 -8 0 -22 -10
-30 -22z"/>
<path d="M7505 6330 c-16 -10 -39 -19 -50 -20 -19 -1 -19 -1 -2 -11 27 -16
117 17 117 42 0 15 -33 9 -65 -11z"/>
<path d="M8273 6280 c-35 -32 -40 -40 -22 -40 19 0 69 41 69 56 0 21 -11 17
-47 -16z"/>
<path d="M8080 6180 c0 -5 4 -10 9 -10 6 0 13 5 16 10 3 6 -1 10 -9 10 -9 0
-16 -4 -16 -10z"/>
<path d="M8139 6166 c-72 -53 -93 -76 -69 -76 9 0 110 68 110 75 0 10 -28 11
-41 1z"/>
<path d="M7675 6058 c-10 -26 -2 -43 12 -26 7 8 8 19 3 28 -8 12 -10 12 -15
-2z"/>
<path d="M7076 4458 c-48 -127 -75 -228 -99 -378 -1 -10 6 -15 23 -14 14 1 28
-4 32 -10 6 -8 8 -7 8 2 0 6 6 12 13 12 6 0 18 4 26 9 12 8 12 12 2 25 -11 14
-11 16 5 16 11 0 37 -5 59 -10 64 -15 70 -9 83 78 7 42 12 91 12 107 0 35 -39
124 -63 144 -10 7 -17 25 -17 40 -1 23 -30 71 -43 71 -3 0 -21 -42 -41 -92z"/>
<path d="M7270 4240 c0 -11 5 -20 10 -20 6 0 10 9 10 20 0 11 -4 20 -10 20 -5
0 -10 -9 -10 -20z"/>
<path d="M7281 4171 c-28 -39 -27 -86 2 -105 12 -8 45 -17 72 -21 49 -6 50 -6
29 12 -12 10 -25 28 -28 40 -4 11 -13 27 -21 33 -8 7 -15 25 -15 41 0 37 -13
37 -39 0z"/>
<path d="M7060 4040 c-8 -5 -25 -10 -37 -10 -26 0 -31 -18 -8 -26 30 -12 -3
-32 -38 -24 -48 10 -43 19 -107 -199 -23 -80 -18 -101 20 -81 53 28 89 -12 77
-86 -9 -53 -21 -61 -97 -69 l-69 -7 -31 -98 c-30 -98 -37 -140 -22 -140 4 0
30 7 57 16 34 11 120 19 270 25 214 9 261 16 298 47 28 25 20 35 -23 28 -35
-6 -40 -4 -40 14 0 13 -12 25 -35 34 -22 9 -39 26 -46 43 -11 30 -42 63 -59
63 -5 0 -19 9 -29 19 -27 27 -55 41 -83 41 -29 1 -58 22 -58 44 0 18 25 22 35
5 4 -6 13 -8 21 -5 8 3 23 -3 34 -14 26 -26 30 -25 30 4 0 24 1 24 114 24 107
1 117 3 182 34 37 18 70 38 72 45 2 7 -13 19 -32 27 -37 15 -111 69 -133 96
-7 8 -13 23 -13 33 0 9 -5 17 -11 17 -6 0 -9 -7 -6 -15 9 -21 -10 -29 -28 -12
-7 8 -21 30 -30 48 l-15 34 4 -30 c2 -16 0 -39 -4 -50 -7 -17 -9 -16 -16 13
-4 19 -14 36 -23 40 -9 3 -19 10 -23 16 -4 6 -9 4 -14 -7 -10 -28 -37 -22 -30
7 4 17 1 26 -11 30 -14 6 -14 8 3 21 18 14 18 14 -6 15 -14 0 -32 -5 -40 -10z"/>
<path d="M7745 3438 c-4 -10 -4 -26 0 -35 8 -17 8 -17 12 0 3 9 3 25 0 35 -4
16 -4 16 -12 0z"/>
<path d="M6367 6723 c-10 -9 -9 -23 1 -23 5 0 9 7 9 15 0 17 -1 18 -10 8z"/>
<path d="M6827 6434 c-13 -13 -7 -24 14 -24 11 0 19 5 17 12 -5 14 -22 21 -31
12z"/>
<path d="M6796 6383 c18 -20 34 -27 52 -25 49 6 92 23 92 38 0 18 -41 18 -88
2 -28 -10 -36 -10 -39 0 -3 6 -13 12 -23 12 -17 0 -16 -3 6 -27z"/>
<path d="M5552 6358 c3 -7 13 -15 22 -16 12 -3 17 1 14 10 -3 7 -13 15 -22 16
-12 3 -17 -1 -14 -10z"/>
<path d="M6648 6332 c-16 -2 -28 -7 -28 -12 0 -5 -8 -11 -17 -14 -10 -2 0 -2
22 1 36 5 65 18 54 26 -2 1 -16 1 -31 -1z"/>
<path d="M6375 6250 c-33 -11 -78 -28 -100 -38 -22 -11 -60 -25 -85 -33 -64
-18 -68 -25 -38 -56 27 -27 27 -27 49 -7 12 10 25 28 30 39 6 17 8 17 8 3 1
-24 9 -23 60 11 24 16 60 36 80 46 20 9 42 25 49 36 7 10 11 19 10 18 -2 0
-30 -9 -63 -19z"/>
<path d="M6253 5553 c-7 -2 -13 -9 -13 -14 0 -14 26 -10 40 6 10 12 10 15 -1
14 -8 0 -20 -3 -26 -6z"/>
<path d="M6720 5760 c0 -5 -10 -10 -23 -10 -38 0 -67 -27 -67 -64 0 -18 6 -40
13 -50 12 -16 15 -16 57 4 25 11 54 27 64 35 19 14 18 15 -10 42 -18 16 -24
28 -16 31 17 5 15 22 -3 22 -8 0 -15 -4 -15 -10z"/>
<path d="M9905 4798 c13 -59 24 -78 51 -88 15 -6 29 -8 32 -5 10 10 -20 80
-45 103 -34 31 -46 28 -38 -10z"/>
<path d="M9817 4753 c-13 -12 -7 -51 12 -74 16 -20 21 -22 35 -10 12 10 15 23
10 45 -3 17 -7 32 -8 32 -7 7 -44 13 -49 7z"/>
<path d="M10110 4557 c0 -20 68 -107 84 -107 3 0 6 12 6 26 0 26 -26 61 -37
50 -4 -3 -17 4 -30 16 -13 12 -23 18 -23 15z"/>
<path d="M10220 4450 c-10 -6 -11 -10 -2 -10 19 0 14 -20 -13 -56 -30 -39 -31
-44 -6 -44 29 0 42 25 39 74 -2 38 -6 44 -18 36z"/>
<path d="M10080 4435 c0 -8 6 -15 14 -15 7 0 19 7 26 15 11 13 8 15 -14 15
-16 0 -26 -5 -26 -15z"/>
</g>
</svg>
